<svg width="275" height="32" viewBox="0 0 275 32" fill="none" xmlns="http://www.w3.org/2000/svg">
<g clip-path="url(#clip0_753_14552)">
<path d="M87.7169 1.882V4.77H83.7399V13.48C83.9879 13.45 84.3369 13.414 84.7899 13.37C85.2399 13.326 85.6479 13.282 86.0129 13.238C86.3769 13.195 86.81 13.14 87.313 13.075C87.74 13.0199 88.166 12.9576 88.591 12.888L88.8539 15.864C88.6349 15.894 88.3179 15.934 87.9029 15.984C87.1768 16.0749 86.4482 16.1446 85.7179 16.193C85.3179 16.223 84.9719 16.251 84.6809 16.281C84.4039 16.295 83.9809 16.321 83.4139 16.358C82.8449 16.394 82.4589 16.42 82.2559 16.434C82.0659 16.449 81.7639 16.464 81.3489 16.477C81.0391 16.4895 80.729 16.4969 80.4189 16.499V1.882H87.7169ZM93.8349 7.769V0H97.0689V20.659H93.8349V10.789H92.4359V19.783H89.2899V0.482H92.4359V7.769H93.8349V7.769ZM110.19 20.634H106.772V12.401H99.5039V9.497H111.358C111.387 9.324 111.419 9.147 111.456 8.967C111.53 8.58982 111.591 8.21028 111.639 7.829C111.683 7.512 111.718 7.259 111.747 7.071C111.776 6.911 111.809 6.641 111.845 6.258L111.92 5.468C111.935 5.323 111.956 5.092 111.986 4.774C112.014 4.456 112.036 4.182 112.051 3.951H101.451V1.047H115.512C115.512 1.307 115.505 1.7 115.491 2.227C115.477 2.756 115.454 3.184 115.426 3.517C115.411 3.82 115.379 4.25 115.329 4.806C115.224 5.98275 115.091 7.15677 114.929 8.327C114.914 8.443 114.889 8.609 114.853 8.826C114.816 9.042 114.784 9.267 114.755 9.497H117.546V12.401H110.191V20.634H110.19ZM129.774 1.75V4.683H123.744V13.677C124.006 13.663 124.385 13.637 124.88 13.601C125.375 13.564 125.739 13.539 125.973 13.525L127.404 13.393C128.037 13.334 128.529 13.283 128.879 13.24C129.242 13.197 129.687 13.141 130.211 13.076C130.736 13.011 131.129 12.956 131.391 12.912L131.784 15.889C131.537 15.917 131.191 15.961 130.747 16.019C129.919 16.1336 129.088 16.2286 128.256 16.304C127.209 16.4052 126.159 16.4859 125.109 16.546C124.632 16.5724 124.155 16.6014 123.678 16.633C123.387 16.648 122.903 16.666 122.225 16.688C121.548 16.709 121.107 16.721 120.904 16.721H120.379V1.75H129.774V1.75ZM136.198 20.659H132.832V0H136.198V20.659ZM139.942 4.817V1.914H150.326V4.817H146.864V4.99C146.872 5.5248 146.893 6.05932 146.929 6.593L147.059 7.503C147.116 7.908 147.174 8.233 147.232 8.478C147.29 8.71 147.386 9.038 147.523 9.464C147.661 9.891 147.794 10.234 147.924 10.494C148.04 10.74 148.201 11.036 148.41 11.382C148.619 11.729 148.803 12.003 148.962 12.205C149.121 12.407 149.33 12.664 149.589 12.975C149.849 13.285 150.058 13.52 150.217 13.679C150.404 13.867 150.638 14.084 150.92 14.329C151.2 14.575 151.435 14.777 151.623 14.936L149.156 17.319L148.356 16.572C148.064 16.304 147.79 16.0182 147.534 15.716C147.298 15.425 147.063 15.1327 146.83 14.839C146.55 14.485 146.315 14.163 146.127 13.875L145.706 13.181C145.545 12.9173 145.39 12.6503 145.241 12.38C145.126 12.6537 144.996 12.9208 144.851 13.18C144.707 13.441 144.577 13.665 144.462 13.852C144.29 14.127 144.058 14.459 143.77 14.85C143.481 15.24 143.25 15.543 143.077 15.76C142.875 16.005 142.619 16.298 142.309 16.637C141.999 16.977 141.743 17.233 141.541 17.407L138.837 15.131C139.024 14.972 139.27 14.735 139.572 14.416C139.875 14.098 140.113 13.839 140.286 13.636C140.459 13.434 140.687 13.167 140.968 12.834C141.249 12.503 141.469 12.22 141.628 11.989C141.772 11.772 141.938 11.501 142.125 11.176C142.313 10.851 142.464 10.567 142.58 10.321C142.695 10.09 142.807 9.808 142.914 9.476C143.023 9.144 143.106 8.877 143.164 8.674C143.192 8.53 143.243 8.244 143.315 7.819C143.387 7.393 143.431 7.064 143.445 6.833C143.474 6.587 143.496 6.259 143.51 5.847C143.524 5.435 143.532 5.15 143.532 4.991V4.817H139.942V4.817ZM155.907 20.634H152.576V0.181H155.907V20.634ZM168.254 4.246V6.696H163.142V7.923H163.578C163.869 7.923 164.368 7.908 165.074 7.879C165.781 7.85 166.381 7.828 166.877 7.813C167.271 7.783 167.857 7.747 168.636 7.703C169.209 7.67607 169.781 7.63238 170.351 7.572L170.57 10.154C170.087 10.2094 169.602 10.2534 169.117 10.286C168.512 10.33 168.028 10.366 167.663 10.396C166.455 10.4539 165.246 10.5049 164.037 10.549C163.657 10.563 163.093 10.575 162.343 10.582C161.593 10.589 161.065 10.592 160.758 10.592H159.774V0.612H169.258V3.24H163.141V4.247H168.254V4.246ZM176.076 20.309H161.743V14.662H172.405V13.962H161.568V11.38H175.77V16.895H165.107V17.638H176.076V20.308V20.309ZM172.405 0H175.77V10.723H172.405V6.74H169.259V3.895H172.405V0ZM192.142 0.203H195.473V13.073H192.142V11.643H189.676V8.87H192.142V7.873H189.676V5.88H178.773V3.323H190.195V5.1H192.142V0.203ZM183.77 12.987C183.511 12.957 183.316 12.937 183.186 12.922L182.645 12.813C182.463 12.7779 182.283 12.7345 182.105 12.683C181.939 12.6315 181.777 12.57 181.619 12.499C181.469 12.4347 181.321 12.366 181.175 12.293C181.017 12.2123 180.868 12.1143 180.731 12.001C180.599 11.8955 180.473 11.7833 180.353 11.665C180.227 11.5544 180.118 11.4269 180.028 11.286C179.946 11.1583 179.874 11.0246 179.812 10.886C179.735 10.7154 179.677 10.5371 179.639 10.354C179.525 9.88792 179.525 9.40108 179.639 8.935C179.696 8.705 179.754 8.531 179.812 8.415C179.874 8.27645 179.946 8.14274 180.028 8.015C180.115 7.877 180.223 7.751 180.353 7.635C180.453 7.535 180.58 7.423 180.731 7.3C180.882 7.177 181.031 7.079 181.175 7.007C181.316 6.92168 181.465 6.84906 181.619 6.79C181.951 6.65498 182.294 6.54989 182.645 6.476C182.861 6.426 183.042 6.393 183.186 6.379C183.316 6.351 183.511 6.325 183.77 6.304C184.03 6.282 184.268 6.271 184.484 6.271C184.701 6.271 184.938 6.282 185.198 6.304C185.458 6.325 185.653 6.351 185.782 6.379C185.941 6.393 186.125 6.427 186.334 6.477C186.681 6.55215 187.022 6.65721 187.351 6.791C187.531 6.863 187.679 6.935 187.794 7.007C187.939 7.079 188.086 7.177 188.237 7.3C188.389 7.423 188.515 7.535 188.617 7.635C188.747 7.751 188.854 7.877 188.941 8.015C189.028 8.152 189.1 8.285 189.158 8.415C189.215 8.531 189.274 8.705 189.33 8.935C189.447 9.40113 189.447 9.88887 189.33 10.355C189.259 10.6867 189.127 11.0024 188.941 11.286C188.851 11.4272 188.742 11.5551 188.617 11.666C188.515 11.766 188.389 11.879 188.237 12.001C188.086 12.124 187.938 12.221 187.794 12.293C187.648 12.3654 187.5 12.4341 187.351 12.499C187.17 12.579 187.008 12.64 186.864 12.684C186.689 12.7345 186.512 12.7776 186.334 12.813C186.125 12.857 185.941 12.893 185.782 12.922C185.653 12.935 185.458 12.957 185.198 12.987C184.938 13.017 184.701 13.03 184.484 13.03C184.268 13.03 184.03 13.016 183.77 12.987V12.987ZM181.369 0.29H187.599V2.717H181.369V0.29ZM192.142 20.614V16.454H181.369V13.767H195.473V20.615H192.142V20.614V20.614ZM184.873 10.669L185.176 10.603C185.248 10.573 185.335 10.538 185.435 10.495C185.519 10.4609 185.6 10.4173 185.674 10.365C185.732 10.307 185.786 10.249 185.836 10.191C185.883 10.1386 185.923 10.0805 185.955 10.018C185.999 9.94375 186.031 9.86359 186.052 9.78C186.071 9.70922 186.082 9.63636 186.084 9.563C186.084 9.491 186.074 9.412 186.052 9.325C186.034 9.24735 186.001 9.17396 185.955 9.109C185.923 9.04655 185.883 8.98842 185.836 8.936C185.784 8.87602 185.73 8.81798 185.674 8.762C185.598 8.70862 185.518 8.66146 185.435 8.621C185.353 8.5778 185.266 8.54521 185.176 8.524C185.078 8.48868 184.976 8.4629 184.873 8.447C184.615 8.40414 184.353 8.40414 184.095 8.447C183.992 8.46242 183.89 8.48821 183.792 8.524C183.614 8.57397 183.445 8.65487 183.295 8.763C183.239 8.81865 183.184 8.87636 183.132 8.936C183.085 8.98864 183.045 9.04674 183.013 9.109C182.967 9.17396 182.934 9.24735 182.916 9.325C182.896 9.40283 182.886 9.48272 182.885 9.563C182.889 9.72301 182.933 9.87949 183.013 10.018C183.045 10.0805 183.085 10.1386 183.132 10.191C183.183 10.249 183.236 10.308 183.295 10.364C183.352 10.407 183.432 10.451 183.533 10.495L183.792 10.603L184.095 10.669C184.351 10.7267 184.617 10.7267 184.873 10.669V10.669ZM205.898 0.657V1.642C205.898 1.832 205.909 2.149 205.931 2.594C205.952 3.039 205.977 3.378 206.007 3.612C206.05 3.889 206.12 4.232 206.214 4.64C206.309 5.049 206.414 5.377 206.531 5.625C206.648 5.888 206.801 6.169 206.991 6.468C207.18 6.766 207.348 7.004 207.493 7.178C207.682 7.398 207.9 7.634 208.149 7.891C208.396 8.146 208.614 8.353 208.804 8.514C209.023 8.689 209.285 8.901 209.591 9.149C209.896 9.397 210.181 9.616 210.443 9.805L208.018 12.278C207.776 12.0712 207.536 11.8632 207.296 11.654C207.052 11.4424 206.812 11.227 206.575 11.008C206.337 10.769 206.1 10.5283 205.865 10.286C205.621 10.0374 205.384 9.78193 205.154 9.52C204.979 9.3215 204.815 9.11316 204.663 8.896C204.495 8.66219 204.331 8.42549 204.172 8.186C203.914 8.64442 203.621 9.08296 203.298 9.498C203.078 9.78533 202.84 10.0595 202.588 10.319C202.361 10.5584 202.132 10.7951 201.9 11.029C201.71 11.219 201.47 11.453 201.178 11.73C200.887 12.008 200.661 12.22 200.501 12.366L197.966 10.067C198.157 9.921 198.394 9.727 198.677 9.487C198.961 9.247 199.19 9.047 199.365 8.885C199.568 8.711 199.773 8.517 199.977 8.306C200.182 8.096 200.37 7.894 200.545 7.704C200.705 7.53 200.888 7.299 201.091 7.015C201.267 6.77398 201.428 6.52215 201.573 6.261C201.674 6.085 201.779 5.859 201.889 5.581C201.998 5.305 202.082 5.078 202.14 4.904C202.198 4.714 202.253 4.47 202.304 4.17C202.355 3.871 202.388 3.62 202.403 3.416C202.431 3.211 202.453 2.923 202.468 2.552C202.482 2.18 202.49 1.906 202.49 1.73V0.657H205.898V0.657ZM201.397 13.262H204.762V17.332H215.73V20.22H201.397V13.262V13.262ZM215.337 15.188H211.972V0H215.337V15.188ZM224.397 9.02L224.31 9.15C224.151 9.382 223.957 9.631 223.726 9.899C223.495 10.166 223.286 10.394 223.098 10.581C222.911 10.77 222.698 10.971 222.46 11.188C222.223 11.404 222.031 11.57 221.887 11.686C221.743 11.803 221.523 11.964 221.228 12.173C220.932 12.383 220.705 12.538 220.546 12.639L218.059 10.234C218.218 10.133 218.444 9.984 218.739 9.79C219.035 9.594 219.27 9.433 219.443 9.303C219.587 9.202 219.771 9.067 219.995 8.902C220.218 8.736 220.408 8.581 220.568 8.436C220.726 8.291 220.914 8.104 221.13 7.873C221.301 7.69586 221.461 7.50744 221.607 7.309C221.866 6.96391 222.076 6.58507 222.233 6.183C222.305 6.024 222.375 5.811 222.439 5.543C222.494 5.33277 222.534 5.11889 222.558 4.903C222.571 4.817 222.587 4.694 222.6 4.536L222.644 4.081H219.161V1.177H229.631V4.081H226.084C226.112 4.196 226.13 4.316 226.138 4.438C226.144 4.561 226.155 4.658 226.169 4.73C226.198 4.875 226.249 5.085 226.321 5.359C226.393 5.634 226.473 5.872 226.559 6.073C226.631 6.247 226.746 6.46 226.905 6.713C227.064 6.966 227.216 7.179 227.36 7.353C227.504 7.526 227.688 7.713 227.912 7.916C228.135 8.118 228.326 8.284 228.485 8.414C228.629 8.515 228.798 8.637 228.994 8.782C229.188 8.927 229.372 9.057 229.545 9.172C229.718 9.274 229.909 9.389 230.119 9.519C230.327 9.649 230.519 9.764 230.692 9.865L228.506 12.379C228.094 12.1326 227.69 11.8724 227.295 11.599C226.848 11.2798 226.422 10.9324 226.019 10.559L225.316 9.854C225.085 9.62866 224.872 9.38631 224.678 9.129L224.591 8.999C224.562 8.9561 224.525 8.91938 224.482 8.891C224.454 8.93488 224.426 8.97822 224.397 9.021V9.02ZM221.152 13.483H224.483V17.34H235.429V20.2H221.152V13.484V13.483ZM235.04 15.001H231.709V0.181H235.04V15V15.001ZM256.132 10.966V13.418H237.909V10.966H256.132ZM239.352 5.102V2.782H254.692V5.102H239.352ZM239.866 16.548C239.946 16.299 240.044 16.096 240.161 15.934C240.411 15.6217 240.714 15.3554 241.056 15.147C241.216 15.045 241.453 14.931 241.767 14.807C242.079 14.683 242.374 14.585 242.651 14.512C242.898 14.438 243.209 14.369 243.58 14.303C243.952 14.237 244.276 14.19 244.552 14.16C244.771 14.132 245.138 14.095 245.656 14.051C246.173 14.007 246.65 13.986 247.086 13.986C247.524 13.986 248.001 14.007 248.518 14.051C249.035 14.095 249.402 14.131 249.621 14.161C249.913 14.191 250.243 14.238 250.615 14.303C250.987 14.369 251.288 14.438 251.522 14.513C251.813 14.585 252.113 14.683 252.418 14.807C252.723 14.931 252.957 15.045 253.117 15.147C253.32 15.263 253.495 15.391 253.64 15.53C253.787 15.668 253.91 15.803 254.012 15.934C254.129 16.095 254.227 16.299 254.308 16.548C254.468 17.0458 254.468 17.5812 254.308 18.079C254.242 18.2976 254.142 18.5044 254.012 18.692C253.899 18.8366 253.774 18.972 253.64 19.097C253.482 19.2454 253.306 19.374 253.117 19.48C252.894 19.613 252.66 19.7267 252.418 19.82C252.127 19.9388 251.827 20.0371 251.522 20.114C251.288 20.173 250.986 20.238 250.615 20.312C250.243 20.385 249.913 20.436 249.621 20.465C249.402 20.48 249.035 20.513 248.518 20.564C248.001 20.614 247.524 20.64 247.086 20.64C246.65 20.64 246.173 20.614 245.656 20.564C245.288 20.5259 244.92 20.4928 244.552 20.465C244.276 20.435 243.952 20.385 243.58 20.312C243.209 20.239 242.898 20.172 242.651 20.114C242.351 20.0338 242.055 19.9353 241.767 19.819C241.52 19.7275 241.282 19.6141 241.056 19.48C240.715 19.27 240.412 19.0035 240.161 18.692C240.031 18.5046 239.931 18.2977 239.866 18.079C239.786 17.8315 239.746 17.573 239.747 17.313C239.746 17.0533 239.786 16.7951 239.866 16.548V16.548ZM240.509 7.487C240.553 7.312 240.612 7.167 240.685 7.049C240.758 6.947 240.83 6.856 240.904 6.776C240.976 6.696 241.071 6.611 241.187 6.524C241.304 6.437 241.438 6.349 241.592 6.262C241.905 6.08618 242.239 5.95013 242.586 5.857C242.818 5.791 243.008 5.744 243.154 5.714C243.357 5.671 243.615 5.623 243.929 5.572C244.242 5.521 244.507 5.488 244.727 5.472C244.93 5.444 245.254 5.418 245.699 5.396C246.598 5.35235 247.498 5.35235 248.397 5.396C248.834 5.418 249.154 5.444 249.358 5.473C249.577 5.488 249.846 5.521 250.166 5.572C250.487 5.622 250.743 5.67 250.932 5.714C251.092 5.744 251.285 5.791 251.511 5.856C251.736 5.922 251.915 5.985 252.046 6.043C252.206 6.101 252.364 6.173 252.515 6.262C252.669 6.349 252.796 6.437 252.898 6.524C253.015 6.611 253.113 6.695 253.194 6.776C253.382 6.97459 253.514 7.22015 253.575 7.487C253.618 7.662 253.64 7.808 253.64 7.925C253.64 8.027 253.619 8.169 253.575 8.351C253.517 8.62214 253.385 8.87197 253.194 9.073C253.113 9.153 253.015 9.237 252.898 9.325C252.78 9.42323 252.652 9.50747 252.515 9.576C252.364 9.657 252.206 9.734 252.046 9.806C251.915 9.865 251.736 9.927 251.511 9.993C251.321 10.0503 251.127 10.0977 250.932 10.135C250.679 10.1899 250.423 10.2336 250.166 10.266L249.358 10.376C249.154 10.391 248.834 10.413 248.397 10.442C247.499 10.5002 246.597 10.5002 245.699 10.442C245.254 10.412 244.93 10.391 244.727 10.376L243.929 10.266C243.669 10.2319 243.411 10.1882 243.154 10.135C242.963 10.0949 242.773 10.0475 242.586 9.993C242.4 9.94328 242.217 9.88114 242.039 9.807C241.889 9.73215 241.74 9.65548 241.592 9.577C241.45 9.5042 241.315 9.41992 241.187 9.325C241.085 9.2505 240.99 9.16609 240.904 9.073C240.825 8.98653 240.752 8.89536 240.685 8.8C240.603 8.66065 240.543 8.50908 240.509 8.351C240.472 8.21166 240.451 8.06888 240.444 7.925C240.444 7.808 240.467 7.662 240.509 7.487V7.487ZM243.067 0.024H250.888V2.301H243.067V0.024V0.024ZM243.438 17.401C243.458 17.4683 243.496 17.5289 243.548 17.576C243.62 17.634 243.718 17.694 243.843 17.75C243.967 17.81 244.086 17.853 244.203 17.882C244.32 17.912 244.479 17.945 244.683 17.98C244.888 18.017 245.085 18.05 245.274 18.079C245.876 18.1426 246.481 18.1787 247.087 18.187C247.422 18.187 247.779 18.173 248.159 18.144C248.537 18.114 248.784 18.094 248.901 18.079C249.091 18.049 249.287 18.017 249.491 17.98C249.694 17.944 249.855 17.912 249.972 17.882C250.089 17.852 250.209 17.81 250.333 17.75C250.456 17.693 250.555 17.634 250.628 17.576C250.679 17.5281 250.717 17.4678 250.738 17.401C250.75 17.3509 250.757 17.2996 250.759 17.248C250.757 17.1964 250.75 17.1451 250.738 17.095C250.717 17.0282 250.679 16.9679 250.628 16.92C250.542 16.8394 250.442 16.7759 250.333 16.733C250.216 16.6849 250.095 16.6451 249.972 16.614C249.855 16.584 249.695 16.548 249.491 16.504C249.296 16.4624 249.099 16.4334 248.901 16.417C248.654 16.3908 248.407 16.3687 248.159 16.351C247.802 16.3231 247.445 16.3084 247.087 16.307C246.767 16.307 246.414 16.323 246.027 16.351C245.776 16.3685 245.525 16.3905 245.274 16.417C245.075 16.4329 244.878 16.462 244.683 16.504C244.48 16.548 244.32 16.584 244.203 16.614C244.086 16.644 243.967 16.684 243.843 16.734C243.733 16.7761 243.633 16.8393 243.548 16.92C243.497 16.9679 243.459 17.0282 243.438 17.095C243.424 17.1449 243.417 17.1963 243.416 17.248C243.416 17.291 243.423 17.343 243.438 17.401ZM244.061 7.958C244.083 7.994 244.101 8.028 244.115 8.056C244.144 8.086 244.192 8.114 244.257 8.143C244.323 8.173 244.385 8.203 244.443 8.231C244.516 8.246 244.632 8.271 244.793 8.308C244.953 8.344 245.135 8.377 245.339 8.407L246.104 8.461C246.733 8.50389 247.365 8.50389 247.994 8.461C248.307 8.44 248.559 8.421 248.747 8.407C248.951 8.377 249.137 8.344 249.305 8.307C249.473 8.271 249.585 8.246 249.644 8.231C249.716 8.202 249.782 8.173 249.841 8.143C249.889 8.12092 249.933 8.09157 249.972 8.056C249.986 8.027 250.005 7.994 250.026 7.958C250.046 7.92885 250.058 7.89448 250.059 7.859C250.057 7.82057 250.045 7.78321 250.026 7.75C250.012 7.7181 249.994 7.68843 249.972 7.662C249.932 7.62505 249.888 7.59222 249.841 7.564C249.781 7.52666 249.714 7.50089 249.644 7.488C249.535 7.44319 249.421 7.41033 249.305 7.39C249.121 7.35075 248.935 7.32502 248.747 7.313C248.497 7.27826 248.246 7.25623 247.994 7.247C247.364 7.21693 246.734 7.21693 246.104 7.247C245.848 7.25706 245.593 7.27908 245.339 7.313C245.034 7.33233 244.733 7.39115 244.443 7.488C244.378 7.50488 244.315 7.53044 244.257 7.564C244.206 7.59077 244.158 7.62368 244.115 7.662C244.093 7.68869 244.075 7.71831 244.061 7.75C244.041 7.7836 244.03 7.82122 244.027 7.86C244.027 7.888 244.039 7.922 244.061 7.958V7.958ZM265.958 14.871H263.795V17.471H275V20.288H260.463V14.222H262.627V11.665C262.137 11.6907 261.646 11.7054 261.155 11.709C260.146 11.7352 259.136 11.7495 258.127 11.752L257.651 8.935C258.797 8.93349 259.944 8.91916 261.09 8.892C261.508 8.878 262.06 8.867 262.745 8.859C263.232 8.85659 263.718 8.84559 264.205 8.826C265.395 8.75956 266.585 8.68756 267.775 8.61C268.107 8.582 268.55 8.542 269.106 8.491C269.661 8.441 270.125 8.394 270.501 8.35L270.717 11.037C270.371 11.08 269.939 11.131 269.42 11.188C268.9 11.246 268.453 11.29 268.078 11.319C267.804 11.333 267.476 11.359 267.094 11.395C266.711 11.431 266.333 11.463 265.957 11.492V14.872H265.958V14.871ZM259.078 3.474C259.124 3.25198 259.19 3.03447 259.274 2.824C259.342 2.67213 259.418 2.52362 259.5 2.379C259.578 2.2439 259.669 2.11664 259.771 1.999C260.011 1.73272 260.28 1.49332 260.572 1.285C260.688 1.213 260.846 1.125 261.048 1.025C261.25 0.924 261.416 0.852 261.546 0.807C261.894 0.701284 262.248 0.614491 262.606 0.547C262.721 0.52 262.97 0.487 263.353 0.451C263.734 0.415 264.026 0.397 264.228 0.397C264.43 0.397 264.723 0.415 265.105 0.451C265.487 0.487 265.736 0.52 265.852 0.548C266.01 0.578 266.194 0.617 266.404 0.667C266.612 0.717 266.782 0.765 266.912 0.807C267.085 0.869417 267.255 0.942215 267.42 1.025C267.629 1.125 267.785 1.212 267.886 1.285C268.029 1.386 268.174 1.497 268.318 1.621C268.463 1.744 268.586 1.871 268.686 2C268.787 2.116 268.881 2.242 268.968 2.38C269.055 2.517 269.126 2.665 269.184 2.824C269.256 2.997 269.321 3.214 269.379 3.474C269.436 3.734 269.466 3.986 269.466 4.232C269.466 4.478 269.436 4.731 269.379 4.991C269.321 5.251 269.257 5.468 269.184 5.641C269.064 5.94049 268.895 6.21845 268.686 6.464C268.586 6.594 268.463 6.722 268.318 6.844C268.179 6.96238 268.035 7.07449 267.886 7.18C267.785 7.252 267.629 7.34 267.42 7.44C267.255 7.52248 267.086 7.59462 266.912 7.656C266.782 7.7 266.612 7.746 266.404 7.798C266.194 7.848 266.01 7.888 265.852 7.917C265.736 7.931 265.487 7.96 265.105 8.002C264.814 8.0397 264.521 8.06174 264.228 8.068C264.027 8.068 263.735 8.047 263.353 8.002C263.104 7.97461 262.855 7.94627 262.606 7.917C262.421 7.88219 262.237 7.84251 262.054 7.798C261.883 7.75793 261.713 7.71055 261.546 7.656C261.375 7.59556 261.209 7.52339 261.048 7.44C260.885 7.36065 260.727 7.27389 260.572 7.18C260.278 6.97347 260.009 6.73316 259.771 6.464C259.666 6.34449 259.575 6.21368 259.5 6.074C259.422 5.93125 259.346 5.78689 259.274 5.641C259.19 5.4303 259.125 5.21285 259.078 4.991C259.022 4.74185 258.993 4.48736 258.992 4.232C258.992 3.986 259.021 3.735 259.078 3.474V3.474ZM262.313 4.481C262.332 4.56904 262.365 4.65345 262.411 4.731C262.453 4.803 262.508 4.875 262.573 4.948C262.638 5.02 262.698 5.078 262.757 5.121C262.952 5.24332 263.163 5.33822 263.384 5.403C263.513 5.432 263.658 5.457 263.817 5.479C263.975 5.5 264.112 5.512 264.227 5.512C264.342 5.512 264.48 5.5 264.638 5.479C264.797 5.457 264.941 5.432 265.071 5.403C265.187 5.374 265.298 5.335 265.407 5.283C265.514 5.233 265.612 5.179 265.699 5.121C265.773 5.0749 265.839 5.01638 265.894 4.948C265.949 4.87902 265.999 4.80654 266.045 4.731C266.09 4.65298 266.122 4.56871 266.142 4.481C266.163 4.388 266.174 4.305 266.174 4.232C266.174 4.16 266.163 4.074 266.142 3.972C266.126 3.88719 266.093 3.80653 266.045 3.735C265.999 3.65912 265.949 3.5863 265.894 3.517C265.84 3.44822 265.774 3.38964 265.699 3.344C265.606 3.28317 265.508 3.22903 265.407 3.182C265.299 3.13166 265.187 3.09181 265.071 3.063C264.928 3.03204 264.783 3.00669 264.638 2.987C264.502 2.96668 264.365 2.95565 264.227 2.954C264.112 2.954 263.975 2.965 263.817 2.987C263.672 3.00607 263.527 3.03143 263.384 3.063C263.163 3.12703 262.952 3.22125 262.757 3.343C262.69 3.39463 262.628 3.45293 262.573 3.517C262.512 3.5842 262.458 3.65721 262.411 3.735C262.361 3.80631 262.328 3.88751 262.313 3.973C262.293 4.05795 262.282 4.14475 262.28 4.232C262.28 4.305 262.291 4.388 262.313 4.482V4.481ZM271.28 0.181H274.612V15.911H271.28V14.611H267.732V11.923H271.28V0.181V0.181Z" fill="#231815"/>
<path d="M40.226 4.43L41.41 0H36.987C39.43 0 40.879 1.983 40.225 4.43H40.226ZM29.612 27.56L28.427 31.991H32.85C30.407 31.991 28.958 30.007 29.612 27.561V27.56Z" fill="#036EB7"/>
<path d="M36.9822 0L35.1122 6.993H39.5352L40.2202 4.429C40.8752 1.983 39.4252 0 36.9822 0ZM29.6092 27.56C28.9542 30.006 30.4032 31.99 32.8462 31.99L38.9402 9.217H34.5172L29.6092 27.56ZM29.7842 0L25.4382 16.246L23.1762 24.701C14.9862 24.678 9.29218 23.359 8.97018 19.871C8.47918 14.559 20.0182 10.406 25.1782 8.821L25.7222 6.787C18.4082 8.965 -0.757821 15.5 0.0231787 23.954C0.520179 29.33 8.54018 31.99 21.2272 31.99H25.6492L34.2072 0H29.7842Z" fill="#003573"/>
<path d="M25.645 31.993C19.925 31.982 3.98297 30.036 2.55497 23.786C1.35297 18.524 8.30297 13.752 11.37 12.242L11.373 12.241C5.09697 15.313 -0.403031 19.35 0.0229686 23.958C0.519969 29.334 8.53897 31.993 21.227 31.993H25.645Z" fill="#036EB7"/>
<path d="M40.043 31.989L44.389 15.743L46.651 7.288C54.841 7.311 60.534 8.629 60.857 12.117C61.347 17.429 49.807 21.582 44.649 23.167L44.105 25.201C51.419 23.024 70.585 16.489 69.804 8.034C69.306 2.658 61.288 0 48.6 0H44.177L35.62 31.989H40.043Z" fill="#003573"/>
<path d="M44.1801 0C49.9001 0.01 65.8421 1.956 67.2701 8.206C68.4721 13.468 61.5221 18.241 58.4551 19.751L58.4521 19.753C64.7281 16.68 70.2281 12.643 69.8021 8.035C69.3051 2.658 61.2871 0 48.5981 0H44.1801Z" fill="#036EB7"/>
<path d="M80.4099 24.21H82.2789C82.5029 24.21 82.7549 24.224 83.0359 24.253C83.3149 24.282 83.5729 24.337 83.8089 24.418C83.9939 24.476 84.1859 24.562 84.3849 24.674C84.5839 24.786 84.7379 24.9 84.8469 25.016C84.9799 25.143 85.0949 25.296 85.1939 25.475C85.2919 25.655 85.3779 25.845 85.4539 26.047C85.5099 26.202 85.5639 26.422 85.6139 26.705C85.7108 27.2608 85.7108 27.8292 85.6139 28.385C85.5639 28.669 85.5099 28.888 85.4539 29.045C85.3814 29.2411 85.2945 29.4317 85.1939 29.615C85.0117 29.9562 84.7289 30.2331 84.3839 30.408C84.1859 30.521 83.9939 30.608 83.8089 30.673C83.557 30.7511 83.2981 30.8046 83.0359 30.833C82.7559 30.865 82.5039 30.88 82.2789 30.88H80.4089V24.21H80.4099ZM81.7419 29.755H82.1999C82.3269 29.755 82.4909 29.743 82.6929 29.72C82.8599 29.7037 83.0249 29.6719 83.1859 29.625C83.3129 29.585 83.4339 29.529 83.5499 29.456C83.6638 29.3843 83.7657 29.2952 83.8519 29.192C83.9149 29.117 83.9779 29.01 84.0379 28.872C84.152 28.6169 84.2207 28.3438 84.2409 28.065C84.2579 27.88 84.2669 27.707 84.2669 27.545C84.2669 27.383 84.2579 27.21 84.2409 27.025C84.2217 26.7467 84.153 26.4741 84.0379 26.22C83.9913 26.1051 83.9287 25.9974 83.8519 25.9C83.7661 25.7961 83.6641 25.7067 83.5499 25.635C83.4361 25.5635 83.3138 25.5064 83.1859 25.465C83.0248 25.4184 82.8598 25.3866 82.6929 25.37C82.5293 25.3499 82.3648 25.3385 82.1999 25.336H81.7419V29.755V29.755ZM89.0709 30.674C88.9819 30.742 88.9039 30.794 88.8349 30.828C88.7439 30.873 88.6229 30.918 88.4719 30.957C88.3199 30.997 88.1699 31.017 88.0219 31.017C87.9189 31.017 87.8139 31.005 87.7049 30.983C87.6069 30.9626 87.51 30.9366 87.4149 30.905C87.1789 30.8161 86.9756 30.6574 86.8319 30.45C86.7599 30.338 86.7066 30.2151 86.6739 30.086C86.5999 29.8222 86.5896 29.5446 86.6439 29.276C86.6669 29.144 86.6959 29.038 86.7299 28.958C86.7579 28.895 86.7999 28.826 86.8539 28.748C86.8978 28.682 86.951 28.6227 87.0119 28.572C87.0928 28.5093 87.1788 28.4535 87.2689 28.405C87.3769 28.345 87.4799 28.298 87.5769 28.263C87.6821 28.2278 87.7893 28.1991 87.8979 28.177L88.2619 28.1C88.3509 28.0862 88.4396 28.0706 88.5279 28.053L88.8179 27.997C88.8819 27.985 88.9419 27.97 88.9979 27.95C89.0494 27.9341 89.0966 27.9068 89.1359 27.87C89.1638 27.8421 89.1844 27.8078 89.1959 27.77C89.2077 27.7297 89.2134 27.688 89.2129 27.646V27.492C89.2129 27.3671 89.1706 27.2459 89.0929 27.148C89.0436 27.0824 88.9767 27.0321 88.8999 27.003C88.8156 26.9672 88.7246 26.9498 88.633 26.952C88.5414 26.9543 88.4514 26.9761 88.3689 27.016C88.2844 27.051 88.2116 27.1092 88.1589 27.184C88.1138 27.2533 88.0807 27.3297 88.0609 27.41C88.0395 27.4785 88.0264 27.5494 88.0219 27.621H86.7899C86.7899 27.506 86.8089 27.384 86.8459 27.251C86.8829 27.121 86.9219 27.015 86.9619 26.934C87.0684 26.7534 87.2074 26.594 87.3719 26.464C87.5601 26.3547 87.7618 26.2706 87.9719 26.214C88.0689 26.191 88.1819 26.174 88.3109 26.162C88.4389 26.151 88.5579 26.146 88.6659 26.146C88.7799 26.146 88.9039 26.156 89.0389 26.176C89.1729 26.196 89.2889 26.22 89.3859 26.248C89.5737 26.3009 89.7523 26.3818 89.9159 26.488C90.0019 26.546 90.0829 26.621 90.1599 26.716C90.2369 26.81 90.2979 26.906 90.3439 27.003C90.401 27.1303 90.4401 27.2649 90.4599 27.403C90.4859 27.559 90.4989 27.712 90.4989 27.861V30.099C90.4989 30.26 90.5169 30.414 90.5539 30.563C90.5919 30.711 90.6209 30.817 90.6439 30.88H89.4029L89.3349 30.696C89.3064 30.6198 89.2862 30.5406 89.2749 30.46C89.2197 30.5422 89.1511 30.6145 89.0719 30.674H89.0709ZM89.0329 28.783C88.9753 28.7931 88.9182 28.8062 88.8619 28.822C88.7989 28.833 88.7319 28.847 88.6609 28.864C88.5969 28.8796 88.5325 28.8939 88.4679 28.907C88.4137 28.917 88.3608 28.9328 88.3099 28.954C88.2611 28.9718 88.2136 28.9932 88.1679 29.018C88.1314 29.041 88.097 29.0671 88.0649 29.096C88.031 29.1246 87.9995 29.1561 87.9709 29.19C87.936 29.2426 87.9087 29.2998 87.8899 29.36C87.8652 29.4263 87.8516 29.4963 87.8499 29.567C87.8499 29.659 87.8699 29.74 87.9069 29.811C87.9439 29.882 87.9879 29.941 88.0389 29.987C88.0965 30.0301 88.1616 30.062 88.2309 30.081C88.291 30.0971 88.3528 30.1058 88.4149 30.107C88.4918 30.1047 88.568 30.0929 88.6419 30.072C88.7287 30.0505 88.8094 30.0095 88.8779 29.952C88.94 29.9076 88.9935 29.8524 89.0359 29.789C89.119 29.6686 89.1734 29.5307 89.1949 29.386C89.2049 29.3 89.2119 29.194 89.2119 29.069V28.734C89.1535 28.7558 89.0933 28.7722 89.0319 28.783H89.0329ZM93.0559 28.93C93.0559 29.006 93.0579 29.075 93.0639 29.138L93.0819 29.321C93.0919 29.379 93.1089 29.443 93.1289 29.516C93.1489 29.588 93.1709 29.647 93.1939 29.693C93.2239 29.739 93.2589 29.791 93.3029 29.848C93.3431 29.9042 93.3941 29.9518 93.4529 29.988C93.5086 30.0208 93.5685 30.0457 93.6309 30.062C93.7531 30.0985 93.8827 30.1027 94.0069 30.074C94.0698 30.0663 94.1312 30.0492 94.1889 30.023C94.2681 29.9912 94.3396 29.9432 94.3991 29.8821C94.4585 29.8209 94.5044 29.748 94.5339 29.668C94.5597 29.61 94.5776 29.5488 94.5869 29.486H95.7629C95.7378 29.7306 95.6672 29.9683 95.5549 30.187C95.4979 30.297 95.4299 30.393 95.3519 30.473C95.2739 30.555 95.1979 30.623 95.1219 30.682C95.0432 30.742 94.9559 30.7899 94.8629 30.824C94.7583 30.8659 94.6514 30.9023 94.5429 30.933C94.2986 30.9878 94.0493 31.0169 93.7989 31.02C93.5298 31.0171 93.2622 30.9791 93.0029 30.907C92.7648 30.8301 92.5445 30.7063 92.3549 30.543C92.2361 30.4338 92.1352 30.3066 92.0559 30.166C91.9659 30.013 91.8959 29.846 91.8439 29.668C91.7966 29.5007 91.7631 29.3298 91.7439 29.157C91.7239 28.977 91.7149 28.781 91.7149 28.567C91.7142 28.1899 91.7757 27.8152 91.8969 27.458C91.9735 27.249 92.0778 27.0513 92.2069 26.87C92.2599 26.8 92.3299 26.723 92.4189 26.636C92.5089 26.549 92.5909 26.48 92.6649 26.428C92.7459 26.376 92.8379 26.327 92.9419 26.281C93.0459 26.235 93.1419 26.2 93.2279 26.177C93.2909 26.16 93.3779 26.142 93.4919 26.125C93.5934 26.1084 93.6961 26.0997 93.7989 26.099C93.9659 26.099 94.1289 26.112 94.2869 26.138C94.4449 26.164 94.5859 26.203 94.7069 26.255C94.8109 26.295 94.9119 26.351 95.0089 26.42C95.1947 26.5509 95.3569 26.7121 95.4889 26.897C95.5568 26.9973 95.6138 27.1046 95.6589 27.217C95.8164 27.6197 95.8958 28.0487 95.8929 28.481C95.8979 28.678 95.9009 28.828 95.9009 28.931H93.0559V28.93ZM94.5599 27.996C94.5599 27.938 94.5559 27.876 94.5469 27.809C94.5388 27.7467 94.5288 27.6847 94.5169 27.623C94.5043 27.5634 94.4852 27.5054 94.4599 27.45C94.438 27.3984 94.4109 27.3491 94.3789 27.303C94.3494 27.2618 94.314 27.2251 94.2739 27.194C94.2311 27.1594 94.1849 27.1292 94.1359 27.104C94.0835 27.075 94.0262 27.0557 93.9669 27.047C93.911 27.0386 93.8545 27.0343 93.7979 27.034C93.6841 27.0351 93.5721 27.0618 93.4699 27.112C93.3674 27.1666 93.2812 27.2473 93.2199 27.346C93.187 27.3988 93.1602 27.4552 93.1399 27.514C93.1169 27.581 93.0999 27.634 93.0879 27.675L93.0669 27.827C93.0585 27.883 93.0541 27.9394 93.0539 27.996H94.5599V27.996ZM99.8299 29.831C99.7389 29.9366 99.6264 30.0215 99.4999 30.08C99.4266 30.1156 99.3507 30.1456 99.2729 30.17C99.1809 30.193 99.0839 30.21 98.9809 30.221C98.8987 30.2317 98.8159 30.2374 98.7329 30.238C98.6469 30.238 98.5449 30.225 98.4249 30.199C98.3051 30.1735 98.1877 30.1377 98.0739 30.092C97.9662 30.0396 97.8632 29.978 97.7659 29.908C97.6461 29.8255 97.5366 29.7288 97.4399 29.62C97.376 29.5422 97.3185 29.4592 97.2679 29.372C97.21 29.2723 97.1589 29.1687 97.1149 29.062C97.0665 28.9396 97.032 28.8121 97.0119 28.682C96.9844 28.5302 96.97 28.3763 96.9689 28.222C96.9689 28.091 96.9819 27.946 97.0089 27.789C97.0339 27.632 97.0689 27.489 97.1149 27.364C97.1489 27.268 97.1969 27.16 97.2599 27.042C97.3229 26.925 97.3999 26.821 97.4909 26.73C97.5879 26.633 97.6959 26.542 97.8129 26.459C97.9299 26.376 98.0429 26.314 98.1509 26.275C98.2479 26.241 98.3539 26.21 98.4679 26.185C98.5819 26.159 98.6909 26.145 98.7939 26.145C98.8909 26.145 98.9839 26.152 99.0719 26.162C99.1599 26.174 99.2439 26.194 99.3239 26.222C99.3989 26.245 99.4669 26.272 99.5299 26.304C99.5919 26.336 99.6499 26.374 99.6999 26.421C99.7941 26.502 99.875 26.5972 99.9399 26.703L99.9499 26.283H101.234V29.911C101.234 30.077 101.222 30.259 101.2 30.455C101.187 30.6086 101.155 30.76 101.106 30.906C101.06 31.0368 101 31.1619 100.926 31.279C100.859 31.3774 100.778 31.4657 100.686 31.541C100.593 31.6162 100.493 31.6809 100.386 31.734C100.281 31.7867 100.173 31.8311 100.061 31.867C99.917 31.9105 99.7694 31.9407 99.6199 31.957C99.3158 31.9927 99.0087 31.9958 98.7039 31.966C98.5759 31.9552 98.4487 31.9365 98.3229 31.91C98.2205 31.8837 98.1191 31.8537 98.0189 31.82C97.9089 31.7828 97.8039 31.7324 97.7059 31.67C97.5278 31.542 97.3811 31.3751 97.2769 31.182C97.2369 31.0954 97.2058 31.0049 97.1839 30.912C97.1554 30.8009 97.141 30.6867 97.1409 30.572H98.3569C98.3569 30.6399 98.3724 30.7069 98.4022 30.7679C98.432 30.8289 98.4754 30.8823 98.5289 30.924C98.5859 30.964 98.6609 30.997 98.7559 31.023C98.8499 31.048 98.9509 31.061 99.0589 31.061C99.1389 31.061 99.2219 31.054 99.3079 31.04C99.3844 31.0285 99.4591 31.007 99.5299 30.976C99.5931 30.9476 99.6498 30.9068 99.6969 30.856C99.7404 30.8114 99.7793 30.7624 99.8129 30.71C99.8439 30.6577 99.8668 30.6011 99.8809 30.542C99.8988 30.4731 99.9131 30.4034 99.9239 30.333C99.9359 30.281 99.9419 30.224 99.9459 30.161C99.9479 30.098 99.9499 30.03 99.9499 29.955V29.682L99.8299 29.832V29.831ZM98.3299 28.583C98.3529 28.68 98.3759 28.754 98.3989 28.807C98.4219 28.852 98.4559 28.913 98.5019 28.991C98.5456 29.0665 98.6075 29.1297 98.6819 29.175C98.7499 29.221 98.8319 29.255 98.9259 29.278C98.9945 29.2968 99.0649 29.3082 99.1359 29.312C99.1809 29.312 99.2459 29.306 99.3319 29.296C99.4047 29.2887 99.4751 29.2655 99.5379 29.228C99.6001 29.1889 99.6552 29.1395 99.7009 29.082C99.7491 29.0214 99.7895 28.9548 99.8209 28.884C99.8559 28.7935 99.8843 28.7006 99.9059 28.606C99.9339 28.488 99.9489 28.361 99.9489 28.225C99.9489 28.075 99.9389 27.945 99.9189 27.829C99.9001 27.7194 99.8668 27.6128 99.8199 27.512C99.7547 27.3713 99.647 27.2545 99.5119 27.178C99.4484 27.1455 99.3803 27.1225 99.3099 27.11C99.2469 27.0954 99.1826 27.0867 99.1179 27.084C99.0571 27.0855 98.9967 27.0942 98.9379 27.11C98.8851 27.1215 98.8335 27.1382 98.7839 27.16C98.7224 27.1903 98.6649 27.2283 98.6129 27.273C98.5694 27.3098 98.5317 27.353 98.5009 27.401C98.4637 27.4581 98.4322 27.5187 98.4069 27.582C98.3779 27.65 98.3589 27.712 98.3469 27.77C98.3343 27.8415 98.323 27.9132 98.3129 27.985C98.3009 28.065 98.2959 28.145 98.2959 28.225C98.2959 28.366 98.3079 28.487 98.3299 28.583ZM106.859 26.238V29.816C106.859 30 106.866 30.196 106.881 30.401C106.895 30.605 106.905 30.766 106.911 30.881H105.622L105.57 30.336C105.53 30.394 105.487 30.45 105.441 30.505C105.331 30.6254 105.204 30.7291 105.064 30.813C104.986 30.8592 104.904 30.8967 104.818 30.925C104.625 30.9892 104.424 31.0216 104.221 31.021C104.146 31.021 104.048 31.006 103.927 30.977C103.827 30.9544 103.729 30.9257 103.633 30.891C103.539 30.852 103.449 30.8037 103.365 30.747C103.281 30.6932 103.202 30.6309 103.131 30.561C103.055 30.4783 102.987 30.3882 102.928 30.292C102.87 30.2002 102.825 30.1009 102.794 29.997C102.754 29.8708 102.729 29.7402 102.721 29.608C102.712 29.4925 102.708 29.3768 102.707 29.261V26.238H104.004V29.036C104.004 29.111 104.01 29.189 104.021 29.27C104.033 29.351 104.045 29.42 104.056 29.477C104.083 29.5956 104.133 29.7077 104.203 29.807C104.231 29.847 104.273 29.887 104.328 29.924C104.383 29.962 104.431 29.993 104.471 30.016C104.569 30.0592 104.675 30.0827 104.783 30.085C104.84 30.0843 104.897 30.0773 104.952 30.064C105.005 30.0523 105.056 30.0331 105.103 30.007C105.149 29.979 105.191 29.949 105.228 29.92C105.266 29.8907 105.3 29.8556 105.328 29.816C105.357 29.776 105.386 29.729 105.414 29.676C105.443 29.626 105.467 29.576 105.484 29.53C105.534 29.37 105.56 29.2036 105.562 29.036V26.238H106.859ZM111.463 24.21H113.332C113.556 24.21 113.809 24.224 114.089 24.253C114.368 24.282 114.627 24.337 114.864 24.418C115.048 24.476 115.24 24.562 115.438 24.674C115.638 24.786 115.792 24.9 115.902 25.016C116.034 25.143 116.149 25.296 116.247 25.475C116.345 25.655 116.432 25.845 116.507 26.047C116.564 26.202 116.618 26.422 116.667 26.705C116.763 27.2609 116.763 27.8292 116.667 28.385C116.632 28.6092 116.579 28.83 116.507 29.045C116.434 29.2411 116.347 29.4316 116.247 29.615C116.156 29.785 116.04 29.9401 115.902 30.075C115.763 30.2064 115.607 30.3185 115.438 30.408C115.24 30.521 115.048 30.608 114.864 30.673C114.611 30.7511 114.352 30.8047 114.089 30.833C113.809 30.865 113.557 30.88 113.332 30.88H111.463V24.21ZM112.796 29.755H113.255C113.381 29.755 113.545 29.743 113.747 29.72C113.949 29.697 114.114 29.665 114.24 29.625C114.367 29.585 114.488 29.529 114.603 29.456C114.719 29.384 114.819 29.296 114.906 29.192C114.969 29.117 115.032 29.01 115.092 28.872C115.208 28.6174 115.276 28.3441 115.295 28.065C115.312 27.88 115.321 27.707 115.321 27.545C115.321 27.383 115.312 27.21 115.295 27.025C115.276 26.7468 115.207 26.4742 115.092 26.22C115.045 26.105 114.983 25.9973 114.906 25.9C114.82 25.7959 114.718 25.7064 114.603 25.635C114.489 25.5636 114.367 25.5065 114.24 25.465C114.079 25.4183 113.914 25.3865 113.747 25.37C113.584 25.3499 113.419 25.3386 113.255 25.336H112.796V29.755V29.755ZM119.306 24.274V25.474H117.952V24.274H119.306ZM119.272 26.281V30.878H117.986V26.281H119.272ZM123.413 29.82C123.375 29.8672 123.332 29.9096 123.284 29.946C123.221 29.9955 123.153 30.0374 123.08 30.071C123.006 30.1074 122.929 30.1382 122.851 30.163C122.759 30.186 122.66 30.203 122.557 30.214C122.474 30.2247 122.39 30.2307 122.306 30.232C122.22 30.232 122.116 30.219 121.995 30.192C121.874 30.1659 121.755 30.1297 121.64 30.084C121.399 29.9664 121.182 29.805 121 29.608C120.935 29.529 120.877 29.4447 120.827 29.356C120.768 29.256 120.716 29.1521 120.671 29.045C120.622 28.921 120.587 28.7918 120.567 28.66C120.539 28.5069 120.525 28.3516 120.524 28.196C120.524 28.063 120.537 27.918 120.563 27.759C120.586 27.613 120.622 27.4694 120.671 27.33C120.706 27.232 120.754 27.124 120.818 27.005C120.882 26.886 120.959 26.781 121.052 26.688C121.15 26.591 121.258 26.5 121.377 26.416C121.495 26.332 121.608 26.27 121.718 26.229C121.816 26.194 121.923 26.164 122.038 26.138C122.154 26.112 122.263 26.098 122.367 26.098C122.465 26.098 122.558 26.104 122.648 26.116C122.737 26.128 122.822 26.147 122.903 26.176C122.978 26.2 123.047 26.227 123.111 26.259C123.175 26.291 123.232 26.329 123.284 26.376C123.378 26.4594 123.459 26.5557 123.526 26.662L123.534 26.238H124.832V29.902C124.832 30.07 124.82 30.253 124.797 30.452C124.772 30.7473 124.678 31.0325 124.521 31.284C124.453 31.383 124.372 31.4718 124.279 31.548C124.185 31.6242 124.084 31.6899 123.976 31.744C123.734 31.8659 123.472 31.9422 123.202 31.969C122.765 32.0214 122.323 32.0052 121.892 31.921C121.788 31.8954 121.686 31.8654 121.585 31.831C121.474 31.7938 121.368 31.7431 121.269 31.68C121.088 31.5516 120.94 31.3824 120.837 31.186C120.796 31.0987 120.764 31.0072 120.742 30.913C120.713 30.801 120.699 30.6857 120.699 30.57H121.927C121.927 30.6385 121.942 30.706 121.972 30.7675C122.002 30.829 122.046 30.8829 122.1 30.925C122.17 30.9713 122.247 31.0051 122.329 31.025C122.425 31.051 122.527 31.065 122.636 31.065C122.716 31.065 122.801 31.056 122.887 31.043C122.964 31.0314 123.04 31.0095 123.112 30.978C123.176 30.949 123.233 30.9075 123.28 30.856C123.371 30.7709 123.436 30.6611 123.467 30.54C123.5 30.4138 123.521 30.285 123.532 30.155C123.534 30.0857 123.536 30.0164 123.536 29.947V29.67L123.413 29.82V29.82ZM121.9 28.56C121.923 28.658 121.946 28.733 121.969 28.785C121.992 28.831 122.027 28.893 122.073 28.971C122.119 29.049 122.179 29.111 122.254 29.158C122.324 29.204 122.406 29.238 122.502 29.261C122.571 29.2804 122.642 29.2921 122.713 29.296C122.76 29.296 122.826 29.29 122.912 29.279C122.986 29.2719 123.057 29.2483 123.12 29.21C123.182 29.1705 123.238 29.1208 123.284 29.063C123.332 29.0019 123.373 28.9351 123.405 28.864C123.434 28.794 123.463 28.701 123.492 28.583C123.52 28.463 123.534 28.336 123.534 28.198C123.534 28.048 123.524 27.915 123.504 27.798C123.485 27.6874 123.452 27.5798 123.405 27.478C123.339 27.3352 123.23 27.2169 123.093 27.14C123.029 27.1067 122.961 27.0834 122.89 27.071C122.826 27.0563 122.761 27.0476 122.696 27.045C122.634 27.0464 122.573 27.0551 122.514 27.071C122.393 27.0984 122.28 27.1546 122.185 27.235C122.141 27.2722 122.103 27.316 122.073 27.365C122.035 27.4228 122.004 27.4841 121.978 27.548C121.949 27.618 121.929 27.681 121.917 27.738C121.905 27.8106 121.893 27.8832 121.883 27.956C121.871 28.036 121.866 28.117 121.866 28.198C121.865 28.34 121.876 28.462 121.9 28.56V28.56ZM127.625 24.274V25.474H126.271V24.274H127.625ZM127.591 26.281V30.878H126.306V26.281H127.591ZM129.294 26.237V25.284L130.591 24.816V26.236H131.568V27.189H130.591V29.512C130.591 29.592 130.597 29.669 130.608 29.742C130.614 29.7983 130.632 29.8527 130.66 29.902C130.683 29.937 130.713 29.9674 130.747 29.992C130.778 30.017 130.813 30.0363 130.851 30.049C131.011 30.09 131.178 30.0948 131.34 30.063L131.543 30.032V30.881C131.491 30.894 131.419 30.909 131.327 30.928C131.234 30.949 131.154 30.965 131.085 30.976L130.799 31.002C130.707 31.0116 130.615 31.0176 130.523 31.02C130.431 31.02 130.331 31.007 130.225 30.985C130.133 30.9655 130.042 30.9421 129.952 30.915C129.782 30.8581 129.632 30.7532 129.52 30.613C129.468 30.5385 129.427 30.4566 129.399 30.37C129.369 30.2888 129.346 30.2051 129.33 30.12C129.315 30.0179 129.307 29.9151 129.304 29.812C129.298 29.6894 129.295 29.5667 129.295 29.444V27.19H128.421V26.237H129.294V26.236V26.237ZM134.831 30.674C134.742 30.742 134.664 30.794 134.595 30.828C134.504 30.873 134.382 30.918 134.231 30.956C134.085 30.9956 133.934 31.0161 133.782 31.017C133.679 31.017 133.573 31.005 133.465 30.982C133.367 30.9619 133.269 30.9362 133.174 30.905C132.938 30.8166 132.735 30.6577 132.592 30.45C132.52 30.3381 132.466 30.2151 132.434 30.086C132.358 29.8225 132.348 29.5446 132.403 29.276C132.42 29.1672 132.449 29.0605 132.489 28.958C132.517 28.895 132.559 28.825 132.613 28.748C132.657 28.682 132.71 28.6227 132.771 28.572C132.835 28.522 132.92 28.466 133.029 28.405C133.137 28.345 133.24 28.298 133.337 28.263C133.416 28.235 133.524 28.206 133.658 28.177L134.022 28.099C134.096 28.089 134.184 28.073 134.287 28.053L134.578 27.997C134.641 27.985 134.701 27.97 134.758 27.95C134.809 27.9341 134.856 27.9068 134.895 27.87C134.922 27.8418 134.943 27.8076 134.955 27.77C134.967 27.7297 134.972 27.688 134.972 27.646V27.492C134.972 27.3673 134.929 27.2464 134.851 27.149C134.802 27.0827 134.735 27.032 134.658 27.003C134.574 26.9673 134.483 26.95 134.392 26.9523C134.3 26.9545 134.21 26.9762 134.128 27.016C134.043 27.0505 133.971 27.1084 133.918 27.183C133.873 27.2525 133.839 27.3293 133.82 27.41C133.798 27.4785 133.785 27.5494 133.781 27.621H132.548C132.548 27.506 132.567 27.384 132.604 27.251C132.641 27.121 132.679 27.015 132.719 26.934C132.765 26.854 132.826 26.769 132.903 26.677C132.981 26.585 133.056 26.514 133.13 26.463C133.187 26.423 133.278 26.377 133.404 26.325C133.53 26.274 133.639 26.237 133.73 26.214C133.827 26.191 133.94 26.174 134.068 26.162C134.196 26.151 134.315 26.146 134.423 26.146C134.537 26.146 134.662 26.156 134.796 26.176C134.93 26.196 135.045 26.22 135.143 26.248C135.228 26.271 135.32 26.304 135.417 26.346C135.514 26.389 135.6 26.437 135.674 26.488C135.856 26.6225 136.003 26.7992 136.102 27.003C136.154 27.112 136.192 27.245 136.218 27.402C136.244 27.559 136.257 27.712 136.257 27.861V30.099C136.257 30.26 136.276 30.414 136.312 30.563C136.349 30.711 136.38 30.817 136.402 30.88H135.161L135.092 30.696C135.064 30.6196 135.044 30.5405 135.032 30.46C134.978 30.5426 134.91 30.615 134.831 30.674V30.674ZM134.793 28.782C134.735 28.7925 134.678 28.8058 134.622 28.822C134.559 28.833 134.492 28.847 134.421 28.864C134.357 28.8796 134.293 28.894 134.228 28.907C134.123 28.9295 134.022 28.9669 133.928 29.018C133.854 29.0649 133.787 29.1229 133.731 29.19C133.697 29.2428 133.669 29.3 133.65 29.36C133.625 29.4263 133.612 29.4963 133.611 29.567C133.611 29.659 133.629 29.739 133.666 29.811C133.704 29.882 133.748 29.941 133.799 29.987C133.857 30.0302 133.922 30.062 133.992 30.081C134.052 30.0971 134.114 30.1058 134.176 30.107C134.253 30.1048 134.329 30.093 134.403 30.072C134.489 30.0503 134.57 30.0093 134.638 29.952C134.7 29.9077 134.754 29.8524 134.796 29.789C134.88 29.669 134.934 29.531 134.955 29.386C134.967 29.2805 134.973 29.1743 134.972 29.068V28.734C134.914 28.7552 134.854 28.7713 134.793 28.782V28.782ZM139.101 24.21V30.88H137.803V24.21H139.101ZM145.046 30.881H143.714V24.21H145.046V30.881ZM146.474 30.88V26.282H147.75V26.822C147.795 26.759 147.84 26.702 147.882 26.651C147.927 26.5976 147.977 26.549 148.032 26.506C148.098 26.4443 148.172 26.3906 148.251 26.346C148.328 26.304 148.409 26.268 148.494 26.24C148.685 26.1774 148.884 26.1457 149.085 26.146C149.159 26.146 149.256 26.16 149.377 26.188C149.496 26.217 149.594 26.245 149.668 26.274C149.754 26.309 149.842 26.355 149.933 26.416C150.025 26.476 150.102 26.536 150.165 26.6C150.319 26.7566 150.433 26.948 150.498 27.158C150.538 27.283 150.563 27.412 150.57 27.543C150.579 27.675 150.584 27.79 150.584 27.887V30.88H149.299V28.11C149.299 28.03 149.293 27.95 149.282 27.874C149.27 27.797 149.26 27.73 149.248 27.672C149.233 27.6137 149.215 27.5566 149.192 27.501C149.17 27.445 149.14 27.3929 149.101 27.347C149.067 27.3015 149.025 27.262 148.978 27.23C148.932 27.1985 148.884 27.1685 148.836 27.14C148.786 27.1102 148.731 27.0911 148.673 27.084C148.516 27.055 148.354 27.0774 148.211 27.148C148.169 27.1723 148.129 27.1997 148.091 27.23C148.052 27.2607 148.018 27.2968 147.989 27.337C147.927 27.4254 147.876 27.5203 147.835 27.62C147.808 27.6934 147.789 27.7695 147.779 27.847C147.766 27.9337 147.759 28.0213 147.758 28.109V30.879H146.474V30.88ZM152.149 30.88V26.237H153.438V26.783C153.481 26.724 153.525 26.6663 153.572 26.61C153.615 26.558 153.666 26.509 153.723 26.463C153.792 26.399 153.866 26.345 153.944 26.303C154.022 26.259 154.104 26.223 154.191 26.193C154.384 26.1299 154.585 26.0982 154.788 26.099C154.862 26.099 154.96 26.113 155.082 26.142C155.202 26.171 155.301 26.2 155.376 26.228C155.463 26.264 155.551 26.311 155.644 26.372C155.826 26.485 155.977 26.6409 156.085 26.826C156.203 27.036 156.272 27.2697 156.288 27.51C156.297 27.644 156.301 27.76 156.301 27.858V30.881H155.004V28.081C155.004 28.001 154.998 27.921 154.987 27.844C154.977 27.7758 154.965 27.7077 154.952 27.64C154.938 27.5809 154.919 27.5231 154.896 27.467C154.874 27.4105 154.843 27.3578 154.805 27.311C154.77 27.2653 154.727 27.2257 154.679 27.194C154.633 27.1621 154.585 27.1318 154.537 27.103C154.486 27.0728 154.43 27.0534 154.372 27.046C154.213 27.0152 154.049 27.0377 153.905 27.11C153.865 27.134 153.824 27.162 153.784 27.193C153.745 27.2242 153.71 27.2605 153.68 27.301C153.618 27.3904 153.566 27.4863 153.525 27.587C153.475 27.747 153.449 27.9134 153.447 28.081V30.879H152.149V30.88ZM159.442 30.976C159.325 30.9557 159.209 30.9287 159.095 30.895C158.979 30.8543 158.866 30.8055 158.757 30.749C158.659 30.7009 158.566 30.6436 158.479 30.578C158.39 30.5123 158.31 30.4361 158.239 30.351C158.17 30.2687 158.104 30.184 158.041 30.097C157.92 29.9139 157.825 29.715 157.759 29.506C157.677 29.2043 157.634 28.8935 157.63 28.581C157.63 28.415 157.644 28.242 157.673 28.061C157.702 27.881 157.731 27.745 157.759 27.654C157.787 27.562 157.827 27.461 157.879 27.35C157.93 27.238 157.984 27.142 158.041 27.062C158.099 26.982 158.164 26.898 158.239 26.81C158.309 26.7248 158.39 26.6486 158.479 26.583C158.552 26.525 158.646 26.468 158.757 26.412C158.868 26.355 158.98 26.305 159.095 26.266C159.186 26.237 159.302 26.21 159.442 26.184C159.582 26.158 159.726 26.146 159.875 26.146C160.023 26.146 160.167 26.158 160.308 26.184C160.448 26.21 160.563 26.237 160.654 26.266C160.769 26.306 160.881 26.356 160.993 26.412C161.104 26.468 161.197 26.526 161.271 26.582C161.356 26.646 161.436 26.722 161.511 26.81C161.585 26.898 161.65 26.983 161.707 27.062C161.765 27.142 161.819 27.238 161.871 27.35C161.922 27.461 161.962 27.563 161.99 27.654C162.019 27.745 162.047 27.881 162.076 28.062C162.104 28.242 162.119 28.415 162.119 28.58C162.119 28.747 162.104 28.918 162.076 29.095C162.055 29.2333 162.027 29.3702 161.99 29.505C161.957 29.6094 161.917 29.7116 161.871 29.811C161.825 29.9113 161.771 30.0071 161.707 30.097C161.65 30.177 161.585 30.263 161.511 30.35C161.44 30.4353 161.36 30.5118 161.271 30.578C161.184 30.6429 161.09 30.6997 160.993 30.748C160.884 30.805 160.77 30.8541 160.654 30.895C160.54 30.9287 160.425 30.9558 160.308 30.976C160.022 31.0288 159.728 31.0288 159.442 30.976V30.976ZM160.033 30.067C160.093 30.053 160.14 30.04 160.175 30.027C160.271 29.9921 160.358 29.9372 160.431 29.866C160.477 29.8197 160.518 29.768 160.552 29.712C160.583 29.659 160.612 29.6042 160.637 29.548C160.665 29.491 160.691 29.414 160.714 29.318C160.736 29.22 160.751 29.148 160.756 29.102C160.768 29.045 160.777 28.964 160.787 28.858C160.795 28.752 160.799 28.659 160.799 28.579C160.799 28.499 160.795 28.407 160.787 28.301C160.781 28.2189 160.77 28.1371 160.756 28.056C160.745 27.9838 160.731 27.9121 160.714 27.841C160.697 27.7618 160.671 27.6847 160.637 27.611C160.611 27.5533 160.583 27.4969 160.552 27.442C160.52 27.3859 160.479 27.3353 160.431 27.292C160.395 27.2563 160.355 27.2251 160.311 27.199C160.268 27.171 160.223 27.1479 160.175 27.13C160.128 27.115 160.081 27.1019 160.033 27.091C159.981 27.0782 159.928 27.0711 159.875 27.07C159.821 27.0711 159.768 27.0781 159.716 27.091C159.656 27.105 159.609 27.118 159.575 27.131C159.535 27.147 159.49 27.171 159.442 27.199C159.397 27.225 159.355 27.2566 159.318 27.293C159.274 27.3384 159.235 27.3888 159.202 27.443C159.164 27.503 159.135 27.558 159.112 27.61C159.083 27.6852 159.061 27.7624 159.044 27.841C159.021 27.939 159.004 28.011 158.992 28.056L158.966 28.301C158.956 28.3933 158.95 28.4861 158.949 28.579C158.949 28.659 158.955 28.752 158.966 28.859L158.992 29.102L159.044 29.317C159.066 29.414 159.089 29.491 159.112 29.548C159.164 29.6637 159.233 29.7706 159.318 29.865C159.394 29.9328 159.481 29.9875 159.575 30.027C159.609 30.04 159.656 30.053 159.716 30.067C159.776 30.081 159.829 30.088 159.875 30.088C159.928 30.0872 159.981 30.0805 160.033 30.068V30.067ZM162.829 26.238H164.212L165.171 29.374L166.166 26.238H167.412L165.847 30.881H164.429L162.829 26.238V26.238ZM170.537 30.674C170.464 30.7332 170.385 30.7848 170.301 30.828C170.21 30.873 170.089 30.918 169.938 30.956C169.792 30.9956 169.641 31.0161 169.489 31.017C169.382 31.0163 169.275 31.0046 169.171 30.982C169.073 30.9618 168.976 30.9361 168.881 30.905C168.765 30.8612 168.657 30.8006 168.559 30.725C168.46 30.6455 168.373 30.553 168.299 30.45C168.226 30.3384 168.172 30.2153 168.14 30.086C168.064 29.8225 168.054 29.5446 168.109 29.276C168.126 29.1672 168.155 29.0605 168.195 28.958C168.23 28.8845 168.272 28.8143 168.319 28.748C168.363 28.6819 168.417 28.6226 168.478 28.572C168.541 28.522 168.626 28.466 168.735 28.405C168.843 28.345 168.946 28.298 169.043 28.263C169.122 28.235 169.23 28.206 169.364 28.177L169.727 28.099C169.802 28.089 169.891 28.073 169.993 28.053L170.284 27.997C170.348 27.985 170.407 27.97 170.465 27.95C170.516 27.9339 170.562 27.9066 170.601 27.87C170.629 27.8423 170.65 27.8079 170.661 27.77C170.673 27.7298 170.679 27.688 170.678 27.646V27.492C170.678 27.4309 170.668 27.3701 170.649 27.312C170.627 27.2532 170.597 27.1979 170.559 27.148C170.509 27.0825 170.442 27.0323 170.365 27.003C170.282 26.9683 170.194 26.9506 170.104 26.951C170.01 26.953 169.918 26.9752 169.834 27.016C169.75 27.0509 169.677 27.1092 169.625 27.184C169.58 27.2534 169.546 27.3297 169.526 27.41C169.505 27.4785 169.492 27.5494 169.488 27.621H168.254C168.254 27.506 168.272 27.384 168.31 27.251C168.347 27.121 168.386 27.015 168.426 26.934C168.471 26.854 168.533 26.769 168.61 26.677C168.687 26.586 168.762 26.514 168.837 26.463C169.025 26.3538 169.226 26.2697 169.436 26.213C169.534 26.191 169.647 26.174 169.775 26.163C169.903 26.151 170.022 26.146 170.129 26.146C170.243 26.146 170.368 26.156 170.503 26.176C170.636 26.196 170.752 26.22 170.849 26.248C171.037 26.3 171.216 26.381 171.38 26.488C171.564 26.6213 171.711 26.7983 171.809 27.003C171.86 27.112 171.9 27.245 171.925 27.402C171.951 27.559 171.963 27.712 171.963 27.861V30.099C171.963 30.26 171.982 30.414 172.02 30.563C172.057 30.711 172.086 30.817 172.11 30.88H170.867L170.799 30.696C170.771 30.6197 170.751 30.5406 170.739 30.46C170.684 30.5424 170.616 30.6148 170.537 30.674V30.674ZM170.499 28.782C170.441 28.7925 170.384 28.8058 170.328 28.822C170.26 28.834 170.193 28.848 170.126 28.864C170.062 28.8796 169.998 28.894 169.933 28.907C169.879 28.9172 169.826 28.933 169.775 28.954C169.726 28.9719 169.679 28.9933 169.633 29.018C169.597 29.0408 169.562 29.0669 169.531 29.096C169.496 29.1244 169.465 29.1558 169.436 29.19C169.402 29.2428 169.374 29.3 169.355 29.36C169.331 29.4265 169.318 29.4964 169.316 29.567C169.316 29.659 169.335 29.739 169.372 29.811C169.41 29.882 169.453 29.941 169.505 29.987C169.563 30.0302 169.628 30.062 169.698 30.081C169.758 30.0972 169.82 30.1059 169.882 30.107C169.959 30.1047 170.035 30.0929 170.109 30.072C170.195 30.0503 170.276 30.0093 170.344 29.952C170.406 29.9074 170.46 29.8523 170.503 29.789C170.542 29.7326 170.575 29.6723 170.601 29.609C170.631 29.5378 170.651 29.4628 170.661 29.386C170.673 29.2805 170.679 29.1743 170.678 29.068V28.734C170.62 28.7555 170.56 28.7716 170.499 28.782V28.782ZM173.648 26.237V25.284L174.946 24.816V26.236H175.923V27.189H174.946V29.512C174.946 29.592 174.952 29.669 174.962 29.742C174.974 29.814 174.992 29.867 175.015 29.902C175.038 29.9369 175.067 29.9674 175.101 29.992C175.132 30.0168 175.167 30.036 175.205 30.049C175.365 30.0896 175.532 30.0944 175.694 30.063L175.897 30.032V30.881C175.845 30.894 175.773 30.909 175.681 30.928C175.589 30.949 175.508 30.965 175.439 30.976L175.153 31.002C175.061 31.0116 174.969 31.0176 174.877 31.02C174.785 31.02 174.684 31.007 174.578 30.985C174.486 30.9654 174.395 30.942 174.305 30.915C174.135 30.8584 173.985 30.7535 173.873 30.613C173.821 30.5385 173.78 30.4566 173.752 30.37C173.722 30.2888 173.698 30.2052 173.682 30.12C173.668 30.0179 173.659 29.9151 173.657 29.812C173.651 29.6894 173.648 29.5667 173.648 29.444V27.19H172.774V26.237H173.648V26.236V26.237ZM178.279 24.274V25.474H176.926V24.274H178.279ZM178.245 26.281V30.878H176.96V26.281H178.245ZM181.303 30.978C181.184 30.9574 181.067 30.93 180.952 30.896C180.835 30.8551 180.72 30.8059 180.61 30.749C180.512 30.7 180.418 30.6421 180.33 30.576C180.24 30.5097 180.158 30.4324 180.087 30.346C180.018 30.2634 179.951 30.1783 179.888 30.091C179.825 29.9995 179.77 29.9024 179.724 29.801C179.677 29.7013 179.637 29.5988 179.603 29.494C179.566 29.3572 179.537 29.2183 179.516 29.078C179.459 28.7323 179.459 28.3797 179.516 28.034C179.545 27.852 179.574 27.714 179.603 27.623C179.632 27.531 179.672 27.428 179.724 27.315C179.776 27.203 179.83 27.105 179.888 27.025C179.951 26.9376 180.017 26.8525 180.087 26.77C180.162 26.68 180.243 26.604 180.33 26.54C180.405 26.483 180.499 26.425 180.61 26.367C180.723 26.31 180.836 26.26 180.952 26.221C181.067 26.1865 181.184 26.1588 181.303 26.138C181.591 26.0848 181.887 26.0848 182.176 26.138C182.317 26.164 182.433 26.192 182.527 26.221C182.641 26.261 182.755 26.311 182.868 26.367C182.981 26.425 183.074 26.483 183.149 26.541C183.236 26.605 183.316 26.681 183.391 26.77C183.466 26.86 183.533 26.944 183.59 27.025C183.711 27.2107 183.807 27.4118 183.875 27.623C183.904 27.715 183.933 27.852 183.962 28.034C184.017 28.3798 184.017 28.7322 183.962 29.078C183.941 29.2183 183.912 29.3572 183.875 29.494C183.808 29.7051 183.712 29.9059 183.59 30.091C183.532 30.171 183.466 30.257 183.391 30.347C183.32 30.4332 183.239 30.5101 183.149 30.576C183.061 30.6425 182.967 30.7005 182.868 30.749C182.758 30.8058 182.644 30.8549 182.527 30.896C182.412 30.9299 182.294 30.9573 182.176 30.978C181.887 31.0308 181.592 31.0308 181.303 30.978V30.978ZM181.9 30.061C181.961 30.046 182.008 30.033 182.043 30.021C182.203 29.9618 182.337 29.8487 182.423 29.701C182.458 29.643 182.487 29.588 182.51 29.536C182.539 29.479 182.565 29.4 182.588 29.302C182.606 29.2305 182.62 29.1581 182.631 29.085C182.659 28.9104 182.673 28.7339 182.674 28.557C182.673 28.3059 182.644 28.0557 182.588 27.811C182.571 27.7306 182.545 27.6525 182.51 27.578C182.484 27.5198 182.455 27.4631 182.423 27.408C182.391 27.3518 182.35 27.3011 182.302 27.258C182.192 27.1504 182.052 27.0795 181.9 27.055C181.848 27.0412 181.794 27.0334 181.74 27.032C181.693 27.032 181.64 27.039 181.58 27.054C181.532 27.0652 181.484 27.0785 181.437 27.094C181.397 27.11 181.351 27.134 181.303 27.163C181.201 27.2211 181.117 27.3062 181.06 27.409C181.023 27.469 180.993 27.526 180.969 27.578C180.94 27.6538 180.918 27.7317 180.901 27.811L180.848 28.029C180.843 28.086 180.834 28.169 180.822 28.275C180.81 28.382 180.805 28.476 180.805 28.557C180.805 28.637 180.811 28.732 180.822 28.839C180.834 28.945 180.843 29.028 180.848 29.085L180.901 29.302C180.923 29.4 180.946 29.479 180.969 29.536C181.022 29.6522 181.092 29.76 181.177 29.856C181.214 29.8935 181.257 29.9258 181.303 29.952C181.351 29.982 181.396 30.004 181.437 30.021C181.472 30.033 181.519 30.045 181.58 30.061C181.64 30.075 181.693 30.081 181.74 30.081C181.794 30.0803 181.848 30.0736 181.9 30.061V30.061ZM185.338 30.88V26.282H186.614V26.822C186.66 26.759 186.704 26.702 186.747 26.651C186.791 26.5976 186.841 26.549 186.896 26.506C186.964 26.442 187.038 26.389 187.115 26.346C187.193 26.3033 187.275 26.2678 187.359 26.24C187.549 26.1763 187.749 26.1446 187.95 26.146C188.024 26.146 188.12 26.16 188.241 26.188C188.361 26.217 188.458 26.245 188.533 26.274C188.618 26.309 188.706 26.355 188.797 26.416C188.889 26.476 188.966 26.536 189.029 26.6C189.183 26.7565 189.298 26.9479 189.363 27.158C189.402 27.283 189.427 27.412 189.435 27.543C189.444 27.675 189.448 27.79 189.448 27.887V30.88H188.163V28.11C188.163 28.03 188.158 27.95 188.147 27.874C188.137 27.8064 188.125 27.7391 188.112 27.672C188.099 27.6135 188.08 27.5562 188.057 27.501C188.035 27.4453 188.005 27.3933 187.967 27.347C187.932 27.3013 187.89 27.2617 187.842 27.23C187.796 27.1985 187.749 27.1685 187.701 27.14C187.651 27.1103 187.596 27.0913 187.538 27.084C187.381 27.0546 187.219 27.077 187.076 27.148C187.034 27.172 186.994 27.1994 186.956 27.23C186.917 27.2607 186.883 27.2968 186.854 27.337C186.791 27.4245 186.738 27.5195 186.699 27.62C186.672 27.6935 186.654 27.7696 186.644 27.847C186.63 27.9337 186.623 28.0213 186.622 28.109V30.879H185.338V30.88ZM194.062 24.274H196.152C196.299 24.274 196.478 24.284 196.687 24.304C196.895 24.324 197.045 24.348 197.137 24.376C197.24 24.405 197.359 24.449 197.495 24.509C197.634 24.57 197.747 24.634 197.839 24.703C197.918 24.759 198.009 24.853 198.108 24.981C198.208 25.109 198.281 25.228 198.327 25.336C198.373 25.439 198.416 25.586 198.456 25.775C198.496 25.963 198.516 26.14 198.516 26.306C198.516 26.466 198.498 26.642 198.46 26.833C198.434 26.9843 198.393 27.1325 198.336 27.275C198.284 27.4006 198.218 27.5197 198.139 27.63C197.992 27.8378 197.792 28.0033 197.561 28.11C197.443 28.165 197.331 28.207 197.223 28.235C197.097 28.275 196.947 28.301 196.773 28.315C196.612 28.3291 196.451 28.3364 196.289 28.337H195.381V30.877H194.062V24.274V24.274ZM195.38 27.241H196.014C196.072 27.241 196.145 27.241 196.237 27.236C196.329 27.234 196.408 27.226 196.477 27.215C196.522 27.204 196.58 27.188 196.648 27.168C196.711 27.1508 196.769 27.1201 196.819 27.078C196.866 27.0374 196.907 26.9914 196.943 26.941C196.982 26.886 197.013 26.8253 197.034 26.761C197.082 26.6143 197.107 26.4613 197.11 26.307C197.109 26.2231 197.101 26.1394 197.085 26.057C197.073 25.9876 197.056 25.919 197.034 25.852C197.013 25.7875 196.979 25.7277 196.935 25.676C196.893 25.6289 196.849 25.5845 196.802 25.543C196.746 25.4952 196.68 25.4601 196.609 25.44C196.473 25.3983 196.332 25.3767 196.19 25.376C196.117 25.3736 196.044 25.3723 195.971 25.372H195.38V27.241V27.241ZM200.892 26.24C200.908 26.5231 200.917 26.8065 200.918 27.09C200.947 27.02 200.984 26.948 201.027 26.877C201.069 26.805 201.115 26.739 201.161 26.681C201.268 26.5612 201.39 26.456 201.524 26.368C201.586 26.3348 201.651 26.306 201.718 26.282C201.858 26.2284 202.005 26.1974 202.155 26.19C202.252 26.182 202.339 26.177 202.414 26.177V27.425H201.922C201.853 27.4265 201.784 27.4366 201.718 27.455C201.654 27.4701 201.592 27.4923 201.533 27.521C201.418 27.5828 201.317 27.6684 201.238 27.772C201.196 27.8273 201.164 27.8891 201.143 27.955C201.121 28.023 201.103 28.078 201.092 28.12C201.062 28.2739 201.047 28.4303 201.048 28.587V30.883H199.75V27.176C199.75 26.8635 199.736 26.5512 199.708 26.24H200.892ZM204.692 30.976C204.575 30.9559 204.459 30.9288 204.345 30.895C204.229 30.8541 204.116 30.8053 204.007 30.749C203.909 30.7004 203.816 30.6432 203.729 30.578C203.64 30.5123 203.56 30.4361 203.489 30.351C203.42 30.2695 203.354 30.1851 203.292 30.098C203.229 30.0075 203.174 29.9114 203.129 29.811C203.083 29.712 203.043 29.6102 203.01 29.506C202.973 29.3712 202.944 29.2343 202.924 29.096C202.868 28.7537 202.868 28.4044 202.924 28.062C202.953 27.882 202.981 27.746 203.01 27.654C203.077 27.4452 203.172 27.2464 203.292 27.063C203.349 26.983 203.415 26.898 203.489 26.81C203.559 26.7248 203.64 26.6486 203.729 26.583C203.803 26.525 203.896 26.468 204.007 26.412C204.118 26.355 204.231 26.306 204.345 26.266C204.436 26.238 204.551 26.21 204.692 26.185C204.978 26.132 205.271 26.132 205.557 26.185C205.697 26.21 205.813 26.237 205.904 26.265C206.019 26.305 206.131 26.355 206.242 26.412C206.354 26.468 206.447 26.526 206.52 26.582C206.606 26.647 206.686 26.722 206.761 26.81C206.834 26.898 206.9 26.983 206.958 27.063C207.079 27.2461 207.174 27.445 207.24 27.654C207.269 27.746 207.297 27.881 207.326 28.062C207.382 28.4041 207.382 28.753 207.326 29.095C207.306 29.2336 207.277 29.3709 207.24 29.506C207.142 29.8184 206.979 30.1064 206.761 30.351C206.69 30.4362 206.609 30.5124 206.52 30.578C206.433 30.6437 206.34 30.7009 206.242 30.749C206.132 30.806 206.019 30.855 205.904 30.895C205.79 30.9287 205.674 30.9557 205.557 30.976C205.271 31.029 204.978 31.029 204.692 30.976V30.976ZM205.283 30.067C205.433 30.0413 205.571 29.9713 205.681 29.866C205.727 29.8199 205.768 29.7682 205.801 29.712C205.833 29.659 205.861 29.6042 205.887 29.548C205.915 29.491 205.941 29.414 205.964 29.318C205.987 29.22 206.001 29.148 206.006 29.103C206.018 29.045 206.028 28.963 206.036 28.858C206.062 28.5906 206.052 28.3208 206.006 28.056C205.995 27.9837 205.981 27.912 205.964 27.841C205.947 27.7618 205.921 27.6847 205.887 27.611C205.861 27.5537 205.832 27.4976 205.801 27.443C205.77 27.3865 205.729 27.3357 205.681 27.293C205.573 27.186 205.433 27.1157 205.283 27.092C205.231 27.0788 205.178 27.0714 205.124 27.07C205.071 27.0715 205.018 27.0789 204.966 27.092C204.906 27.106 204.859 27.119 204.825 27.131C204.779 27.1506 204.735 27.1733 204.692 27.199C204.647 27.2251 204.605 27.2566 204.568 27.293C204.524 27.3384 204.485 27.3887 204.452 27.443C204.415 27.502 204.385 27.559 204.362 27.61C204.333 27.6855 204.311 27.7631 204.294 27.842C204.271 27.939 204.254 28.011 204.242 28.056L204.217 28.301C204.206 28.3936 204.2 28.4868 204.199 28.58C204.199 28.66 204.205 28.752 204.217 28.859L204.242 29.103C204.254 29.148 204.271 29.22 204.294 29.317C204.316 29.414 204.339 29.491 204.362 29.548C204.414 29.6639 204.483 29.7712 204.568 29.866C204.644 29.9339 204.731 29.9887 204.825 30.028C204.859 30.04 204.906 30.053 204.966 30.068C205.026 30.082 205.079 30.088 205.124 30.088C205.178 30.0873 205.231 30.0806 205.283 30.068V30.067ZM210.114 26.52C210.166 26.47 210.212 26.432 210.252 26.402C210.308 26.3561 210.369 26.3168 210.434 26.285C210.589 26.1991 210.759 26.1431 210.935 26.12C211.115 26.0871 211.301 26.0933 211.479 26.138C211.59 26.164 211.684 26.194 211.765 26.228C211.84 26.258 211.915 26.298 211.99 26.346C212.206 26.4822 212.379 26.6758 212.491 26.905C212.581 26.7549 212.688 26.6153 212.81 26.489C212.942 26.3616 213.098 26.2614 213.269 26.194C213.349 26.166 213.442 26.142 213.545 26.126C213.649 26.108 213.747 26.099 213.84 26.099C214.059 26.1039 214.274 26.1543 214.472 26.247C214.552 26.287 214.624 26.331 214.687 26.377C214.751 26.423 214.811 26.472 214.869 26.524C214.938 26.588 215 26.664 215.055 26.749C215.11 26.836 215.151 26.919 215.181 26.999C215.226 27.127 215.256 27.286 215.271 27.476C215.285 27.668 215.293 27.829 215.293 27.962V30.882H213.995V28.092C213.995 28.0213 213.994 27.9507 213.991 27.88C213.988 27.7452 213.963 27.6119 213.917 27.485C213.878 27.3756 213.815 27.2764 213.732 27.195C213.653 27.1312 213.561 27.0851 213.463 27.06C213.416 27.0498 213.368 27.0445 213.32 27.044C213.248 27.0444 213.177 27.0599 213.111 27.0898C213.046 27.1196 212.987 27.163 212.94 27.217C212.894 27.263 212.856 27.307 212.827 27.347C212.791 27.3947 212.762 27.4473 212.741 27.503C212.694 27.6208 212.665 27.7448 212.654 27.871C212.642 27.966 212.637 28.051 212.637 28.126V30.881H211.339V28.108C211.339 28.044 211.336 27.971 211.331 27.887C211.327 27.8214 211.318 27.7562 211.304 27.692C211.293 27.5722 211.254 27.4566 211.191 27.354C211.166 27.3043 211.131 27.2602 211.089 27.224C211.046 27.1859 210.999 27.1514 210.95 27.121C210.908 27.0914 210.861 27.0703 210.811 27.059C210.763 27.0484 210.713 27.043 210.664 27.043C210.562 27.04 210.462 27.0705 210.379 27.13C210.33 27.1604 210.286 27.1982 210.249 27.242C210.209 27.289 210.172 27.34 210.136 27.397C210.088 27.4908 210.05 27.5898 210.024 27.692C209.995 27.8665 209.98 28.0431 209.98 28.22V30.88H208.683V26.237H209.971V26.671C210.016 26.619 210.062 26.569 210.114 26.519V26.52ZM218.437 30.976C218.32 30.9558 218.205 30.9287 218.091 30.895C217.975 30.8543 217.861 30.8055 217.752 30.749C217.654 30.7002 217.561 30.643 217.474 30.578C217.385 30.512 217.305 30.4358 217.234 30.351C217.165 30.269 217.099 30.1842 217.037 30.097C216.974 30.007 216.919 29.9113 216.874 29.811C216.828 29.712 216.788 29.6102 216.755 29.506C216.718 29.371 216.689 29.2337 216.669 29.095C216.613 28.753 216.613 28.4041 216.669 28.062C216.697 27.882 216.726 27.745 216.755 27.654C216.784 27.562 216.823 27.461 216.874 27.35C216.925 27.238 216.98 27.142 217.037 27.062C217.094 26.982 217.159 26.898 217.234 26.81C217.308 26.72 217.389 26.646 217.474 26.583C217.548 26.525 217.641 26.468 217.752 26.412C217.863 26.355 217.976 26.305 218.091 26.266C218.182 26.237 218.297 26.21 218.437 26.184C218.577 26.158 218.721 26.146 218.87 26.146C219.018 26.146 219.163 26.158 219.303 26.184C219.443 26.21 219.559 26.237 219.65 26.266C219.764 26.306 219.877 26.356 219.988 26.412C220.1 26.468 220.192 26.526 220.266 26.582C220.351 26.646 220.432 26.722 220.506 26.81C220.58 26.898 220.646 26.983 220.703 27.062C220.76 27.142 220.815 27.238 220.866 27.35C220.917 27.461 220.958 27.563 220.986 27.654C221.014 27.745 221.043 27.881 221.072 28.062C221.126 28.4042 221.126 28.7528 221.072 29.095C221.051 29.2332 221.022 29.3701 220.986 29.505C220.952 29.6094 220.912 29.7116 220.866 29.811C220.821 29.9113 220.766 30.007 220.703 30.097C220.646 30.177 220.581 30.263 220.506 30.35C220.435 30.4355 220.355 30.5121 220.266 30.578C220.179 30.6431 220.086 30.7 219.988 30.748C219.879 30.805 219.766 30.8541 219.65 30.895C219.536 30.9287 219.42 30.9557 219.303 30.976C219.017 31.0291 218.723 31.0291 218.437 30.976V30.976ZM219.028 30.067C219.088 30.053 219.136 30.04 219.17 30.027C219.266 29.9928 219.354 29.9378 219.427 29.866C219.473 29.8197 219.513 29.768 219.547 29.712C219.579 29.6592 219.607 29.6044 219.632 29.548C219.661 29.491 219.686 29.414 219.709 29.318C219.732 29.22 219.746 29.148 219.751 29.102C219.779 28.9291 219.794 28.7542 219.795 28.579C219.794 28.3306 219.765 28.083 219.709 27.841C219.692 27.7617 219.666 27.6845 219.632 27.611C219.607 27.5531 219.578 27.4967 219.547 27.442C219.515 27.386 219.475 27.3353 219.427 27.292C219.39 27.2568 219.35 27.2256 219.307 27.199C219.264 27.1708 219.218 27.1476 219.17 27.13C219.123 27.1148 219.076 27.1018 219.028 27.091C218.976 27.0777 218.923 27.0707 218.87 27.07C218.816 27.0711 218.763 27.0781 218.711 27.091C218.663 27.102 218.616 27.1153 218.57 27.131C218.524 27.1507 218.48 27.1734 218.437 27.199C218.392 27.225 218.35 27.2566 218.313 27.293C218.269 27.3384 218.23 27.3888 218.197 27.443C218.16 27.502 218.13 27.558 218.107 27.61C218.079 27.6855 218.057 27.7626 218.039 27.841L217.988 28.056L217.962 28.301C217.951 28.3933 217.945 28.4861 217.945 28.579C217.945 28.659 217.951 28.752 217.962 28.859L217.988 29.102L218.039 29.317C218.062 29.414 218.085 29.491 218.107 29.548C218.159 29.6638 218.229 29.771 218.313 29.866C218.35 29.9022 218.392 29.9337 218.437 29.96C218.486 29.988 218.529 30.012 218.57 30.028C218.604 30.04 218.652 30.053 218.711 30.068C218.771 30.082 218.824 30.088 218.87 30.088C218.923 30.0874 218.976 30.0807 219.028 30.068V30.067ZM222.581 26.237V25.284L223.879 24.816V26.236H224.856V27.189H223.879V29.512C223.879 29.592 223.885 29.669 223.896 29.742C223.902 29.7983 223.92 29.8527 223.948 29.902C223.993 29.971 224.06 30.0228 224.138 30.049C224.298 30.0893 224.466 30.094 224.628 30.063L224.831 30.032V30.881C224.759 30.8977 224.686 30.9133 224.614 30.928C224.522 30.949 224.441 30.965 224.373 30.976L224.087 31.002C223.995 31.0116 223.903 31.0176 223.811 31.02C223.71 31.0188 223.61 31.0071 223.512 30.985C223.42 30.9654 223.329 30.942 223.239 30.915C223.069 30.8575 222.919 30.7528 222.806 30.613C222.754 30.5383 222.714 30.4565 222.686 30.37C222.655 30.2891 222.631 30.2054 222.616 30.12C222.602 30.0179 222.593 29.9151 222.59 29.812C222.585 29.6894 222.582 29.5667 222.581 29.444V27.19H221.708V26.237H222.581V26.236V26.237ZM227.213 24.274V25.474H225.859V24.274H227.213ZM227.179 26.281V30.878H225.894V26.281H227.179ZM230.237 30.978C230.119 30.9573 230.002 30.9299 229.887 30.896C229.771 30.856 229.657 30.806 229.545 30.749C229.446 30.7002 229.352 30.6423 229.264 30.576C229.174 30.5097 229.093 30.4324 229.022 30.346C228.952 30.2636 228.886 30.1786 228.823 30.091C228.759 29.9999 228.704 29.9028 228.659 29.801C228.612 29.7013 228.572 29.5988 228.538 29.494C228.501 29.3572 228.472 29.2183 228.451 29.078C228.394 28.7323 228.394 28.3797 228.451 28.034C228.48 27.852 228.509 27.714 228.538 27.623C228.567 27.531 228.607 27.428 228.659 27.315C228.71 27.203 228.765 27.105 228.823 27.025C228.88 26.945 228.947 26.86 229.022 26.77C229.093 26.6836 229.174 26.6064 229.264 26.54C229.352 26.4739 229.446 26.416 229.545 26.367C229.657 26.31 229.771 26.26 229.887 26.221C229.979 26.191 230.096 26.165 230.237 26.138C230.526 26.085 230.821 26.085 231.11 26.138C231.252 26.164 231.368 26.192 231.461 26.221C231.576 26.261 231.689 26.311 231.802 26.367C231.915 26.425 232.008 26.483 232.083 26.541C232.173 26.6074 232.254 26.6843 232.326 26.77C232.4 26.86 232.467 26.944 232.524 27.025C232.645 27.2107 232.741 27.4118 232.809 27.623C232.838 27.715 232.868 27.852 232.896 28.034C232.952 28.3794 232.952 28.7317 232.896 29.077C232.876 29.2177 232.847 29.357 232.809 29.494C232.742 29.7051 232.646 29.9059 232.524 30.091C232.467 30.171 232.4 30.257 232.326 30.347C232.251 30.437 232.17 30.513 232.083 30.576C231.995 30.6425 231.901 30.7005 231.802 30.749C231.692 30.806 231.578 30.8551 231.461 30.896C231.346 30.9302 231.228 30.9575 231.11 30.978C230.821 31.0311 230.526 31.0311 230.237 30.978V30.978ZM230.834 30.061C230.894 30.046 230.942 30.033 230.977 30.021C231.137 29.9618 231.271 29.8487 231.357 29.701C231.392 29.643 231.421 29.588 231.444 29.536C231.473 29.479 231.498 29.4 231.522 29.302C231.559 29.15 231.584 28.9951 231.595 28.839C231.623 28.495 231.599 28.1486 231.522 27.812C231.504 27.7314 231.478 27.653 231.444 27.578C231.418 27.5198 231.389 27.4631 231.357 27.408C231.325 27.3518 231.284 27.3011 231.236 27.258C231.162 27.1859 231.074 27.1301 230.977 27.094C230.942 27.081 230.894 27.069 230.834 27.054C230.782 27.0405 230.728 27.0335 230.674 27.033C230.627 27.033 230.574 27.039 230.513 27.054C230.453 27.069 230.405 27.081 230.37 27.094C230.331 27.11 230.285 27.134 230.236 27.163C230.135 27.2221 230.051 27.307 229.994 27.409C229.956 27.469 229.927 27.526 229.903 27.578C229.874 27.6539 229.851 27.7318 229.834 27.811L229.782 28.029C229.777 28.086 229.768 28.169 229.756 28.275C229.744 28.382 229.739 28.476 229.739 28.557C229.739 28.637 229.745 28.732 229.756 28.839C229.768 28.945 229.777 29.028 229.782 29.085L229.834 29.302C229.857 29.4 229.88 29.479 229.903 29.536C229.956 29.6522 230.026 29.76 230.111 29.856C230.148 29.8931 230.19 29.9253 230.236 29.952C230.285 29.982 230.33 30.004 230.37 30.021C230.405 30.033 230.453 30.045 230.513 30.061C230.574 30.075 230.627 30.081 230.674 30.081C230.721 30.081 230.774 30.075 230.834 30.061V30.061ZM234.263 30.88V26.282H235.539V26.822C235.584 26.759 235.628 26.702 235.672 26.651C235.716 26.5976 235.766 26.549 235.821 26.506C235.889 26.442 235.963 26.389 236.04 26.346C236.118 26.3033 236.2 26.2678 236.284 26.24C236.474 26.1759 236.673 26.1442 236.874 26.146C236.949 26.146 237.045 26.16 237.165 26.188C237.286 26.217 237.382 26.245 237.457 26.274C237.543 26.309 237.631 26.355 237.722 26.416C237.993 26.5879 238.193 26.8511 238.287 27.158C238.326 27.283 238.352 27.412 238.36 27.543C238.369 27.675 238.373 27.79 238.373 27.887V30.88H237.089V28.11C237.089 28.03 237.083 27.95 237.072 27.874C237.062 27.8064 237.05 27.7391 237.037 27.672C237.023 27.6135 237.005 27.5562 236.981 27.501C236.96 27.4448 236.93 27.3927 236.891 27.347C236.856 27.3015 236.814 27.262 236.767 27.23C236.721 27.1985 236.674 27.1685 236.626 27.14C236.576 27.1102 236.521 27.0911 236.463 27.084C236.306 27.0567 236.145 27.0791 236.001 27.148C235.959 27.1723 235.919 27.1997 235.881 27.23C235.842 27.261 235.807 27.297 235.778 27.337C235.75 27.377 235.722 27.423 235.693 27.474C235.664 27.526 235.642 27.574 235.624 27.62C235.598 27.6936 235.579 27.7696 235.568 27.847C235.555 27.942 235.548 28.029 235.548 28.109V30.879H234.263V30.88ZM244.279 29.515L243.851 30.878H242.48L244.707 24.274H246.215L248.441 30.878H247.019L246.6 29.515H244.279ZM245.461 25.791H245.444L244.648 28.347H246.241L245.461 25.791ZM252.193 29.82C252.155 29.8673 252.112 29.9096 252.064 29.946C252.001 29.9954 251.933 30.0374 251.861 30.071C251.787 30.1072 251.71 30.138 251.632 30.163C251.539 30.186 251.442 30.203 251.338 30.215C251.255 30.2253 251.171 30.231 251.087 30.232C251 30.232 250.897 30.219 250.775 30.193C250.654 30.1664 250.536 30.1299 250.421 30.084C250.312 30.0312 250.208 29.969 250.11 29.898C249.989 29.8147 249.879 29.7174 249.781 29.608C249.717 29.5291 249.659 29.4451 249.608 29.357C249.549 29.2567 249.497 29.1524 249.453 29.045C249.404 28.921 249.369 28.7918 249.349 28.66C249.321 28.5072 249.307 28.3523 249.306 28.197C249.308 27.9019 249.358 27.6091 249.454 27.33C249.488 27.232 249.537 27.124 249.6 27.005C249.664 26.887 249.742 26.781 249.834 26.689C249.931 26.591 250.04 26.499 250.158 26.416C250.276 26.332 250.39 26.27 250.499 26.229C250.597 26.194 250.704 26.165 250.82 26.138C250.927 26.1127 251.037 26.0992 251.148 26.098C251.246 26.098 251.34 26.105 251.43 26.116C251.519 26.128 251.604 26.148 251.684 26.176C251.759 26.2 251.829 26.228 251.892 26.259C251.955 26.291 252.013 26.329 252.065 26.377C252.11 26.417 252.152 26.459 252.19 26.502C252.227 26.545 252.266 26.598 252.307 26.662L252.316 26.238H253.613V29.902C253.613 30.07 253.601 30.254 253.579 30.452C253.565 30.6072 253.533 30.7602 253.484 30.908C253.437 31.04 253.376 31.1665 253.302 31.285C253.234 31.3842 253.153 31.4731 253.06 31.549C252.968 31.624 252.866 31.689 252.758 31.744C252.647 31.798 252.538 31.844 252.429 31.878C252.302 31.918 252.153 31.948 251.984 31.969C251.677 32.0074 251.366 32.0107 251.058 31.979C250.929 31.968 250.8 31.949 250.673 31.922C250.569 31.8958 250.467 31.8655 250.366 31.831C250.255 31.7938 250.149 31.7431 250.051 31.68C249.87 31.551 249.722 31.3819 249.618 31.186C249.577 31.0985 249.546 31.007 249.524 30.913C249.495 30.8013 249.481 30.6864 249.481 30.571H250.709C250.709 30.6392 250.724 30.7065 250.754 30.7678C250.784 30.8291 250.827 30.8829 250.881 30.925C250.939 30.965 251.016 30.999 251.111 31.025C251.205 31.051 251.308 31.065 251.417 31.065C251.498 31.065 251.581 31.057 251.667 31.043C251.745 31.0314 251.821 31.0095 251.893 30.978C251.956 30.9491 252.013 30.908 252.061 30.857C252.105 30.8116 252.144 30.7621 252.178 30.709C252.21 30.6566 252.233 30.5996 252.247 30.54C252.265 30.475 252.279 30.403 252.29 30.328C252.302 30.2711 252.31 30.2132 252.312 30.155C252.315 30.091 252.316 30.023 252.316 29.948V29.671L252.193 29.821V29.82ZM250.68 28.56C250.703 28.659 250.726 28.733 250.749 28.786C250.772 28.831 250.807 28.893 250.853 28.972C250.899 29.049 250.959 29.112 251.034 29.158C251.11 29.2065 251.193 29.2414 251.281 29.261C251.35 29.2804 251.421 29.2921 251.493 29.296C251.539 29.296 251.606 29.291 251.692 29.279C251.765 29.2719 251.836 29.2484 251.899 29.21C251.962 29.1708 252.018 29.1211 252.064 29.063C252.112 29.0019 252.153 28.9351 252.185 28.864C252.214 28.794 252.243 28.701 252.272 28.583C252.301 28.4568 252.315 28.3276 252.314 28.198C252.314 28.048 252.304 27.915 252.284 27.798C252.265 27.6874 252.232 27.5798 252.185 27.478C252.119 27.3354 252.01 27.2171 251.873 27.14C251.809 27.1071 251.741 27.0841 251.67 27.072C251.606 27.0573 251.541 27.0486 251.476 27.046C251.414 27.0475 251.353 27.0562 251.293 27.072C251.24 27.084 251.188 27.1014 251.138 27.124C251.076 27.1544 251.018 27.192 250.965 27.236C250.921 27.2734 250.883 27.3173 250.853 27.366C250.816 27.4235 250.784 27.4845 250.758 27.548C250.732 27.6093 250.711 27.6729 250.697 27.738C250.684 27.8105 250.673 27.8832 250.662 27.956C250.651 28.036 250.646 28.118 250.646 28.198C250.646 28.34 250.657 28.462 250.68 28.56V28.56ZM256.175 28.95C256.175 29.024 256.177 29.094 256.183 29.156L256.201 29.336C256.212 29.394 256.228 29.457 256.248 29.529C256.263 29.5897 256.285 29.6487 256.312 29.705C256.34 29.75 256.376 29.802 256.419 29.859C256.46 29.914 256.511 29.9605 256.569 29.996C256.623 30.0287 256.682 30.0533 256.744 30.069C256.816 30.089 256.877 30.099 256.928 30.099C256.979 30.099 257.043 30.094 257.117 30.082C257.179 30.074 257.24 30.0565 257.297 30.03C257.399 29.9892 257.487 29.921 257.553 29.833C257.589 29.7862 257.617 29.7347 257.639 29.68C257.664 29.6227 257.681 29.5621 257.69 29.5H258.855C258.847 29.6207 258.824 29.7399 258.787 29.855C258.747 29.984 258.701 30.097 258.65 30.193C258.592 30.303 258.526 30.397 258.449 30.477C258.372 30.557 258.296 30.625 258.222 30.683C258.144 30.7427 258.057 30.7902 257.965 30.824C257.861 30.8655 257.755 30.9015 257.648 30.932C257.407 30.9865 257.16 31.0153 256.913 31.018C256.793 31.018 256.66 31.008 256.514 30.988C256.382 30.9709 256.252 30.9434 256.124 30.906C255.889 30.8286 255.671 30.7064 255.483 30.546C255.365 30.438 255.265 30.3121 255.187 30.173C255.097 30.0179 255.027 29.8523 254.978 29.68C254.93 29.5142 254.897 29.3446 254.879 29.173C254.858 28.9794 254.848 28.7848 254.849 28.59C254.849 28.2167 254.91 27.8458 255.029 27.492C255.105 27.2844 255.208 27.0879 255.337 26.908C255.401 26.8258 255.471 26.7485 255.547 26.677C255.636 26.59 255.716 26.522 255.791 26.471C255.871 26.42 255.962 26.371 256.066 26.325C256.168 26.28 256.263 26.245 256.347 26.222C256.532 26.1764 256.722 26.1509 256.913 26.146C257.078 26.146 257.24 26.158 257.397 26.184C257.554 26.21 257.692 26.249 257.812 26.3C257.915 26.34 258.014 26.395 258.112 26.464C258.295 26.5935 258.456 26.7523 258.588 26.934C258.653 27.032 258.708 27.138 258.754 27.252C258.8 27.362 258.842 27.488 258.879 27.634C258.952 27.9182 258.988 28.2106 258.986 28.504C258.992 28.699 258.994 28.847 258.994 28.95H256.175V28.95ZM257.665 28.023C257.665 27.9615 257.66 27.9 257.652 27.839C257.644 27.777 257.634 27.7153 257.622 27.654C257.598 27.5406 257.551 27.4332 257.485 27.338C257.456 27.2973 257.421 27.2609 257.382 27.23C257.339 27.1955 257.294 27.1653 257.245 27.14C257.193 27.1114 257.137 27.0924 257.078 27.084C257.023 27.0757 256.967 27.0713 256.911 27.071C256.798 27.0723 256.687 27.0986 256.585 27.148C256.506 27.1889 256.437 27.2454 256.381 27.314C256.325 27.3826 256.284 27.4619 256.26 27.547C256.236 27.613 256.22 27.666 256.208 27.706L256.187 27.856C256.178 27.916 256.174 27.972 256.174 28.023H257.665V28.023ZM260.291 30.88V26.237H261.579V26.783C261.622 26.724 261.667 26.6663 261.714 26.61C261.759 26.5555 261.809 26.5062 261.865 26.463C261.931 26.4008 262.005 26.347 262.085 26.303C262.249 26.2119 262.428 26.1515 262.614 26.125C262.815 26.0827 263.024 26.0882 263.223 26.141C263.344 26.171 263.442 26.2 263.517 26.228C263.604 26.264 263.693 26.311 263.785 26.372C263.877 26.432 263.956 26.495 264.019 26.558C264.176 26.7156 264.292 26.9092 264.356 27.122C264.396 27.249 264.422 27.378 264.43 27.511C264.439 27.644 264.443 27.761 264.443 27.858V30.881H263.146V28.081C263.146 28.001 263.14 27.921 263.128 27.844C263.118 27.7758 263.107 27.7077 263.094 27.64C263.079 27.581 263.06 27.5232 263.037 27.467C263.015 27.4105 262.984 27.3578 262.946 27.311C262.911 27.2655 262.869 27.226 262.821 27.194C262.774 27.1621 262.726 27.1317 262.677 27.103C262.627 27.0725 262.571 27.0531 262.513 27.046C262.355 27.0142 262.19 27.0367 262.046 27.11C262.006 27.134 261.966 27.162 261.925 27.193C261.886 27.2239 261.851 27.2603 261.822 27.301C261.758 27.3894 261.706 27.4855 261.666 27.587C261.616 27.747 261.59 27.9134 261.588 28.081V30.879H260.291V30.88V30.88ZM268.315 27.9C268.313 27.821 268.304 27.7424 268.288 27.665C268.276 27.5862 268.253 27.5094 268.22 27.437C268.177 27.3264 268.103 27.231 268.006 27.163C267.963 27.1302 267.913 27.1057 267.861 27.091C267.812 27.0738 267.761 27.0665 267.709 27.0696C267.658 27.0727 267.607 27.0861 267.561 27.109C267.504 27.1347 267.452 27.1706 267.408 27.215C267.341 27.2863 267.289 27.3694 267.253 27.46C267.214 27.5472 267.183 27.6375 267.159 27.73C267.132 27.8587 267.114 27.989 267.104 28.12C267.091 28.25 267.084 28.3804 267.082 28.511C267.082 28.608 267.089 28.738 267.104 28.901C267.117 29.064 267.131 29.18 267.142 29.248C267.159 29.34 267.187 29.445 267.224 29.561C267.261 29.678 267.308 29.777 267.365 29.858C267.413 29.9277 267.476 29.9858 267.549 30.028C267.621 30.068 267.685 30.089 267.743 30.089C267.771 30.089 267.811 30.086 267.862 30.08C267.914 30.0744 267.964 30.057 268.008 30.029C268.064 29.9953 268.113 29.9512 268.153 29.899C268.194 29.8454 268.225 29.7852 268.246 29.721C268.278 29.6393 268.3 29.554 268.311 29.467C268.325 29.367 268.333 29.274 268.333 29.189H269.583C269.583 29.286 269.573 29.407 269.552 29.549C269.539 29.6624 269.514 29.7742 269.48 29.883C269.438 29.996 269.39 30.1063 269.334 30.213C269.271 30.336 269.206 30.433 269.137 30.501C269.034 30.604 268.937 30.684 268.846 30.741C268.733 30.8083 268.612 30.8629 268.487 30.904C268.361 30.944 268.237 30.972 268.114 30.99C267.97 31.0082 267.826 31.0169 267.681 31.016C267.436 31.0084 267.194 30.9531 266.97 30.853C266.826 30.7836 266.691 30.6973 266.568 30.596C266.351 30.4194 266.178 30.1949 266.063 29.94C266.005 29.8212 265.953 29.6994 265.908 29.575C265.812 29.252 265.764 28.9169 265.763 28.58C265.763 28.42 265.773 28.25 265.793 28.066C265.812 27.884 265.852 27.711 265.909 27.552C265.949 27.437 265.999 27.312 266.058 27.179C266.118 27.044 266.194 26.923 266.285 26.814C266.359 26.723 266.455 26.629 266.572 26.531C266.689 26.434 266.81 26.357 266.936 26.3C267.038 26.254 267.161 26.216 267.304 26.188C267.447 26.16 267.573 26.146 267.681 26.146C267.819 26.146 267.958 26.157 268.101 26.18C268.244 26.203 268.361 26.228 268.453 26.257C268.566 26.297 268.68 26.35 268.795 26.416C268.909 26.482 269.006 26.555 269.086 26.634C269.182 26.727 269.266 26.831 269.334 26.947C269.402 27.066 269.454 27.172 269.488 27.269C269.523 27.362 269.547 27.465 269.562 27.583C269.576 27.7 269.583 27.807 269.583 27.904H268.315V27.901V27.9ZM274.976 26.238L272.761 31.998H271.473L272.027 30.405L270.392 26.238H271.776L272.71 29.07L273.704 26.238H274.976V26.238Z" fill="#231815"/>
</g>
<defs>
<clipPath id="clip0_753_14552">
<rect width="275" height="32" fill="white"/>
</clipPath>
</defs>
</svg>
