<svg width="755" height="796" viewBox="0 0 755 796" fill="none" xmlns="http://www.w3.org/2000/svg">
<path d="M184.097 499.836C187.942 448.075 211.783 393.951 254.947 353.999C263.407 346.126 282.73 333.629 292.536 327.626C295.516 325.461 406.07 256.381 406.07 256.381C416.26 251.559 434.526 248.902 446.446 248.902C460.866 248.902 474.325 252.838 485.957 259.726C484.515 223.415 444.62 185.43 410.492 165.06C349.255 128.355 272.444 126.977 235.624 144.887C217.647 153.645 110.746 210.524 110.746 210.524C44.7984 246.54 0 317.195 0 398.38C0 479.564 44.7984 550.219 110.843 586.236C110.843 586.236 171.599 618.611 229.568 649.904C204.669 612.707 179.771 559.568 184.193 499.934L184.097 499.836Z" fill="#242627"/>
<path d="M455.088 20.0096C455.088 20.0096 358.932 76.3112 292.584 113.192C331.527 112.897 379.413 119.567 422.876 145.56C470.57 174.005 509.224 222.656 527.398 285.627C530.186 295.338 531.917 317.604 532.59 329.08C534.033 353.895 533.263 453.159 533.263 453.159C533.263 484.056 515.571 517.896 489.993 531.039C527.398 555.561 612.496 539.377 653.844 512.795C703.653 480.721 747.981 419.319 747.981 370.178C747.981 328.687 755 212.651 755 212.651C755 95.2418 660.671 0 544.321 0C512.398 0 482.204 7.1603 455.088 20.0096Z" fill="#242627"/>
<path d="M666.227 532.003C614.251 565.522 534.894 578.067 457.554 554.741C422.583 544.156 342.073 491.525 306.814 467.904C283.852 452.517 258.393 428.112 258.393 397.827C258.393 396.063 258.681 394.397 258.777 392.633C228.706 409.687 210.932 464.18 208.146 500.444C202.093 580.812 254.646 660.984 294.805 683.33C325.164 700.188 455.249 775.361 455.249 775.361C482.341 788.103 512.605 795.355 544.501 795.355C660.559 795.355 754.615 700.58 755 583.556C755 583.556 750.292 509.363 748.563 438.403C730.116 473.001 703.792 507.598 666.035 531.905L666.227 532.003Z" fill="#242627"/>
</svg>
