<svg width="745" height="285" viewBox="0 0 745 285" fill="none" xmlns="http://www.w3.org/2000/svg">
<path d="M5.40639 10.586C7.73308 8.84737 10.4618 8.36023 12.1048 8.23828L63.2981 8.23828C64.8751 8.36007 67.4264 8.81123 69.6718 10.3603C71.882 11.885 73.8914 14.5364 74.3123 19.2782L74.3123 62.1186C73.913 66.5642 72.1235 69.1784 70.0945 70.7468C68.0459 72.3302 65.6619 72.9162 63.971 73.1094L11.4307 73.1094C9.64916 72.9158 7.09994 72.2937 4.98166 70.5281C2.88322 68.7791 1.0896 65.8104 1 60.6671L1 20.7792C1.08947 15.3139 3.11635 12.2973 5.40639 10.586Z" stroke="#001437" stroke-width="2"/>
<path d="M394.418 10.5749C396.739 8.84718 399.458 8.3602 401.1 8.23828L452.294 8.23828C453.871 8.36006 456.421 8.81117 458.666 10.3655C460.876 11.8956 462.887 14.5592 463.308 19.3276V62.121C462.931 66.5649 461.142 69.1778 459.108 70.746C457.054 72.3298 454.659 72.9161 452.967 73.1094L400.426 73.1094C398.648 72.9159 396.097 72.2829 393.977 70.5157C391.877 68.7649 390.085 65.8074 389.996 60.7166V20.6822C390.107 15.2684 392.132 12.2753 394.418 10.5749Z" stroke="#001437" stroke-width="2"/>
<path d="M716.712 136.563L716.779 136.615L716.854 136.655L716.867 136.662C734.369 150.617 743.321 170.908 743.321 197.094C743.321 222.78 730.948 244.275 709.277 259.384C687.58 274.51 656.544 283.24 619.307 283.24C567.56 283.24 532.439 273.168 503.109 249.979C501.843 248.726 500.4 246.878 499.853 244.648C499.32 242.478 499.603 239.823 502.012 236.81L534.27 209.749C539.195 206.602 543.625 206.574 546.822 207.307C548.438 207.678 549.747 208.245 550.649 208.719C551.1 208.955 551.447 209.166 551.677 209.316C551.792 209.391 551.878 209.45 551.932 209.488C551.945 209.497 551.956 209.505 551.965 209.512C551.976 209.52 551.985 209.526 551.991 209.531L552.002 209.539L552.003 209.539L552.003 209.539L552.003 209.54L552.004 209.54L552.018 209.551L552.035 209.563C568.706 221.222 591.136 226.895 620.228 226.895C636.917 226.895 649.657 224.599 658.258 219.92C662.574 217.572 665.868 214.614 668.08 211.028C670.294 207.44 671.39 203.278 671.39 198.581C671.39 190.377 668.636 183.753 663.314 179.601C657.612 175.116 650.844 173.007 637.857 171.366L637.848 171.365L599.302 166.855C599.3 166.855 599.299 166.855 599.298 166.854C570.521 163.249 549.358 155.607 534.36 143.382C517.757 129.466 509.71 111.123 509.71 87.1457C509.71 61.0008 521.103 39.5091 541.353 24.5235C561.631 9.51749 590.848 1 626.492 1C670.35 1 702.211 10.0246 728.973 30.056C730.241 31.3128 731.702 33.1611 732.28 35.3962C732.844 37.5749 732.6 40.2386 730.242 43.2678L698.996 69.1409C691.381 74.191 684.858 71.6735 682.246 70.2322C664.165 57.9315 643.052 56.2048 624.65 56.2048C604.554 56.2048 593.513 61.6213 587.511 68.0804C581.522 74.5254 580.72 81.8281 580.72 85.262C580.72 91.465 583.392 97.0126 588.291 100.823L588.294 100.825C594.382 105.535 604.113 108.946 615.044 110.198C615.045 110.198 615.046 110.198 615.047 110.198L652.768 114.709L652.772 114.709C682.066 118.069 701.76 124.873 716.712 136.563Z" stroke="#001437" stroke-width="2"/>
<path d="M5.40514 105.049C7.73037 103.317 10.4579 102.841 12.1048 102.719L63.3056 102.719C64.8725 102.816 67.425 103.254 69.6718 104.804C71.8802 106.327 73.8911 108.99 74.3123 113.758L74.3123 270.067C73.9131 274.512 72.1242 277.113 70.0958 278.675C68.0493 280.252 65.6665 280.84 63.9641 281.058H11.4373C9.64853 280.84 7.10035 280.205 4.98285 278.434C2.88301 276.678 1.08959 273.709 1 268.566L1 115.26C1.0895 109.768 3.11731 106.753 5.40514 105.049Z" stroke="#001437" stroke-width="2"/>
<path d="M394.416 105.038C396.737 103.317 399.454 102.841 401.1 102.719L452.294 102.719C453.871 102.841 456.421 103.292 458.666 104.846C460.876 106.376 462.887 109.04 463.308 113.808V270.07C462.931 274.539 461.142 277.151 459.108 278.719C457.057 280.301 454.663 280.889 452.96 281.107H400.439C398.643 280.864 396.095 280.217 393.977 278.452C391.876 276.7 390.085 273.755 389.996 268.665V115.163C390.107 109.723 392.133 106.731 394.416 105.038Z" stroke="#001437" stroke-width="2"/>
<mask id="path-6-inside-1_806_16379" fill="white">
<path fill-rule="evenodd" clip-rule="evenodd" d="M281.628 177.911H244.501C232.479 177.763 230.591 169.633 230.36 166.361V134.239L230.314 134.19C230.545 131.067 232.249 123.582 242.843 122.739L346.806 122.739C356.71 123.532 358.875 130.075 359.289 133.545V157.958C359.328 158.914 359.319 159.879 359.289 160.839V167.006C359.24 167.435 359.163 167.915 359.046 168.426C358.941 172.812 358.763 177.17 358.46 181.529C357.723 192.038 356.341 202.547 353.347 212.659C348.787 228.026 339.114 241.51 326.861 252.167C301.941 273.78 270.987 284.289 232.157 284.289C196.504 284.289 166.011 273.879 141.551 253.357C108.064 225.289 108.064 191.98 108.064 145.977V145.788V142.12V138.452C108.064 92.3506 108.064 59.039 141.551 30.8827C166.379 10.0629 196.044 0 232.157 0C298.901 0 345.424 32.1715 357.769 86.2038C357.907 89.7729 357.032 96.6633 348.833 97.506L300.007 97.506C283.885 97.3077 280.937 86.0056 280.937 86.0056V86.2038C273.152 67.2182 257.445 58.2954 232.157 58.2954C217.739 58.2954 205.21 62.7568 196.873 70.7873C186.416 80.5527 183.33 91.0618 183.33 142.12C183.33 193.178 186.509 204.183 196.78 213.75C204.934 221.632 217.463 225.895 232.157 225.895C248.693 225.895 263.019 221.78 272.047 212.56C278.081 206.413 281.904 193.475 281.628 183.462V177.911Z"/>
</mask>
<path d="M244.501 177.911L244.477 179.911L244.489 179.911H244.501V177.911ZM281.628 177.911H283.628V175.911H281.628V177.911ZM230.36 166.361H228.36V166.432L228.365 166.502L230.36 166.361ZM230.36 134.239H232.36V133.454L231.826 132.879L230.36 134.239ZM230.314 134.19L228.32 134.043L228.256 134.912L228.848 135.55L230.314 134.19ZM242.843 122.739V120.739H242.764L242.685 120.745L242.843 122.739ZM346.806 122.739L346.966 120.745L346.886 120.739H346.806V122.739ZM359.289 133.545H361.289V133.426L361.275 133.308L359.289 133.545ZM359.289 157.958H357.289V157.998L357.291 158.038L359.289 157.958ZM359.289 160.839L357.29 160.778L357.289 160.809V160.839H359.289ZM359.289 167.006L361.276 167.233L361.289 167.12V167.006H359.289ZM359.046 168.426L357.096 167.982L357.052 168.178L357.047 168.378L359.046 168.426ZM358.46 181.529L360.455 181.669L360.455 181.667L358.46 181.529ZM353.347 212.659L355.265 213.228L355.265 213.227L353.347 212.659ZM326.861 252.167L328.172 253.678L328.174 253.676L326.861 252.167ZM141.551 253.357L142.837 251.825L142.836 251.824L141.551 253.357ZM108.064 145.977H110.064H108.064ZM141.551 30.8827L140.266 29.3502L140.264 29.3519L141.551 30.8827ZM357.769 86.2038L359.768 86.1264L359.761 85.9401L359.719 85.7584L357.769 86.2038ZM348.833 97.506V99.506H348.936L349.038 99.4955L348.833 97.506ZM300.007 97.506L299.982 99.5059L299.994 99.506H300.007V97.506ZM280.937 86.0056L282.872 85.5008L278.937 86.0056H280.937ZM280.937 86.2038L279.086 86.9626L282.937 86.2038H280.937ZM196.873 70.7873L198.238 72.2489L198.249 72.2384L198.26 72.2277L196.873 70.7873ZM196.78 213.75L198.171 212.312L198.157 212.299L198.144 212.286L196.78 213.75ZM272.047 212.56L270.62 211.159L270.618 211.161L272.047 212.56ZM281.628 183.462H279.628V183.49L279.629 183.517L281.628 183.462ZM244.501 179.911H281.628V175.911H244.501V179.911ZM228.365 166.502C228.496 168.355 229.094 171.668 231.458 174.57C233.891 177.557 237.965 179.831 244.477 179.911L244.526 175.911C239.015 175.843 236.134 173.977 234.56 172.044C232.916 170.027 232.455 167.639 232.355 166.221L228.365 166.502ZM228.36 134.239V166.361H232.36V134.239H228.36ZM228.848 135.55L228.894 135.6L231.826 132.879L231.78 132.829L228.848 135.55ZM242.685 120.745C236.872 121.208 233.249 123.539 231.093 126.408C228.996 129.198 228.45 132.277 228.32 134.043L232.309 134.337C232.409 132.979 232.83 130.755 234.291 128.811C235.693 126.945 238.22 125.113 243.002 124.733L242.685 120.745ZM346.806 120.739L242.843 120.739V124.739L346.806 124.739V120.739ZM361.275 133.308C361.041 131.343 360.304 128.417 358.134 125.848C355.919 123.224 352.384 121.179 346.966 120.745L346.647 124.732C351.132 125.092 353.631 126.715 355.078 128.428C356.571 130.197 357.124 132.278 357.304 133.783L361.275 133.308ZM361.289 157.958V133.545H357.289V157.958H361.289ZM357.291 158.038C357.327 158.93 357.319 159.844 357.29 160.778L361.289 160.9C361.318 159.914 361.329 158.898 361.288 157.878L357.291 158.038ZM361.289 167.006V160.839H357.289V167.006H361.289ZM360.996 168.871C361.131 168.282 361.22 167.73 361.276 167.233L357.302 166.778C357.261 167.141 357.196 167.547 357.096 167.982L360.996 168.871ZM357.047 168.378C356.942 172.742 356.765 177.069 356.465 181.39L360.455 181.667C360.761 177.272 360.94 172.882 361.046 168.474L357.047 168.378ZM356.465 181.389C355.733 191.825 354.366 202.174 351.43 212.091L355.265 213.227C358.317 202.92 359.713 192.251 360.455 181.669L356.465 181.389ZM351.43 212.09C346.998 227.024 337.574 240.198 325.549 250.658L328.174 253.676C340.654 242.821 350.576 229.028 355.265 213.228L351.43 212.09ZM325.551 250.656C301.057 271.9 270.595 282.289 232.157 282.289V286.289C271.38 286.289 302.826 275.66 328.172 253.678L325.551 250.656ZM232.157 282.289C196.916 282.289 166.894 272.009 142.837 251.825L140.266 254.889C165.128 275.749 196.092 286.289 232.157 286.289V282.289ZM142.836 251.824C110.157 224.434 110.064 192.111 110.064 145.977H106.064C106.064 191.85 105.97 226.144 140.267 254.89L142.836 251.824ZM110.064 145.977V145.788H106.064V145.977H110.064ZM110.064 145.788V142.12H106.064V145.788H110.064ZM110.064 142.12V138.452H106.064V142.12H110.064ZM110.064 138.452C110.064 92.2206 110.157 59.8921 142.839 32.4135L140.264 29.3519C105.971 58.1858 106.064 92.4807 106.064 138.452H110.064ZM142.837 32.4152C167.26 11.9342 196.453 2 232.157 2V-2C195.634 -2 165.498 8.19163 140.266 29.3502L142.837 32.4152ZM232.157 2C265.215 2 293.114 9.9668 314.23 24.4877C335.323 38.9934 349.756 60.1101 355.82 86.6493L359.719 85.7584C353.438 58.2653 338.437 36.28 316.496 21.1919C294.578 6.11896 265.843 -2 232.157 -2V2ZM355.771 86.2812C355.834 87.9096 355.649 90.1082 354.667 91.928C353.759 93.6131 352.076 95.1622 348.629 95.5165L349.038 99.4955C353.789 99.0071 356.644 96.6897 358.188 93.8267C359.659 91.0983 359.843 88.0672 359.768 86.1264L355.771 86.2812ZM348.833 95.506L300.007 95.506V99.506L348.833 99.506V95.506ZM300.031 95.5062C292.494 95.4135 288.239 92.7509 285.865 90.2922C284.656 89.0401 283.895 87.7988 283.44 86.8843C283.213 86.4278 283.064 86.0561 282.975 85.8104C282.931 85.6877 282.902 85.597 282.885 85.5435C282.877 85.5167 282.872 85.4994 282.87 85.492C282.869 85.4883 282.868 85.4872 282.869 85.4886C282.869 85.4893 282.869 85.4907 282.87 85.4927C282.87 85.4937 282.871 85.4949 282.871 85.4962C282.871 85.4969 282.871 85.498 282.871 85.4984C282.872 85.4996 282.872 85.5008 280.937 86.0056C279.002 86.5103 279.002 86.5116 279.002 86.513C279.002 86.5135 279.003 86.5149 279.003 86.5159C279.004 86.5179 279.004 86.5201 279.005 86.5225C279.006 86.5273 279.008 86.5327 279.009 86.5389C279.013 86.5512 279.017 86.5662 279.022 86.5839C279.032 86.6194 279.045 86.6655 279.063 86.7216C279.097 86.8338 279.147 86.9861 279.215 87.1728C279.35 87.546 279.557 88.0588 279.858 88.6649C280.46 89.8758 281.444 91.4724 282.987 93.0707C286.118 96.3126 291.398 99.4003 299.982 99.5059L300.031 95.5062ZM278.937 86.0056V86.2038H282.937V86.0056H278.937ZM282.787 85.4451C278.747 75.5906 272.596 68.2442 264.103 63.3933C255.645 58.5629 245.021 56.2954 232.157 56.2954V60.2954C244.581 60.2954 254.454 62.4893 262.119 66.8667C269.747 71.2236 275.342 77.8314 279.086 86.9626L282.787 85.4451ZM232.157 56.2954C217.35 56.2954 204.279 60.8769 195.485 69.3468L198.26 72.2277C206.141 64.6367 218.128 60.2954 232.157 60.2954V56.2954ZM195.508 69.3256C192.791 71.8626 190.488 74.5102 188.599 77.8988C186.714 81.2793 185.289 85.3106 184.22 90.5706C182.096 101.025 181.33 116.608 181.33 142.12H185.33C185.33 116.574 186.107 101.373 188.14 91.3671C189.15 86.3969 190.458 82.7787 192.092 79.8467C193.722 76.9227 195.726 74.5947 198.238 72.2489L195.508 69.3256ZM181.33 142.12C181.33 167.635 182.12 183.338 184.243 193.888C186.399 204.606 189.96 210.13 195.417 215.213L198.144 212.286C193.329 207.802 190.164 203.04 188.164 193.099C186.13 182.991 185.33 167.662 185.33 142.12H181.33ZM195.39 215.188C204.021 223.531 217.11 227.895 232.157 227.895V223.895C217.815 223.895 205.846 219.732 198.171 212.312L195.39 215.188ZM232.157 227.895C248.955 227.895 263.914 223.724 273.476 213.959L270.618 211.161C262.123 219.837 248.431 223.895 232.157 223.895V227.895ZM273.474 213.961C276.794 210.579 279.383 205.482 281.109 200.069C282.844 194.628 283.772 188.666 283.627 183.407L279.629 183.517C279.76 188.271 278.915 193.785 277.298 198.853C275.673 203.949 273.334 208.394 270.62 211.159L273.474 213.961ZM283.628 183.462V177.911H279.628V183.462H283.628Z" fill="#001437" mask="url(#path-6-inside-1_806_16379)"/>
</svg>
