<svg width="100" height="100" viewBox="0 0 100 100" fill="none" xmlns="http://www.w3.org/2000/svg">
<path d="M61.9205 28.4308L54.1105 22.9608C53.2605 22.3708 52.2505 22.0508 51.2205 22.0508H30.1005C27.3205 22.0508 25.0605 24.3008 25.0605 27.0908V79.8008C25.0605 82.5808 27.3105 84.8408 30.1005 84.8408H75.5106C78.2906 84.8408 80.5506 82.5908 80.5506 79.8008V34.3908C80.5506 31.6108 78.3006 29.3508 75.5106 29.3508H64.8105C63.7805 29.3508 62.7705 29.0308 61.9205 28.4408V28.4308Z" fill="url(#paint0_linear_806_15812)"/>
<path d="M56.3102 21.2902L48.5002 15.8202C47.6502 15.2302 46.6402 14.9102 45.6102 14.9102H24.4902C21.7102 14.9102 19.4502 17.1602 19.4502 19.9502V72.6602C19.4502 75.4402 21.7002 77.7002 24.4902 77.7002H69.9002C72.6802 77.7002 74.9402 75.4502 74.9402 72.6602V27.2402C74.9402 24.4602 72.6902 22.2002 69.9002 22.2002H59.2002C58.1702 22.2002 57.1602 21.8802 56.3102 21.2902Z" fill="url(#paint1_linear_806_15812)"/>
<path d="M50.0004 47.7586C53.5074 47.7586 56.3504 44.9156 56.3504 41.4086C56.3504 37.9016 53.5074 35.0586 50.0004 35.0586C46.4934 35.0586 43.6504 37.9016 43.6504 41.4086C43.6504 44.9156 46.4934 47.7586 50.0004 47.7586Z" fill="url(#paint2_linear_806_15812)"/>
<path d="M50.0003 50.1992C41.0703 50.1992 33.8203 57.0592 33.8203 64.9392H66.1703C66.1703 57.0592 58.9303 50.1992 49.9903 50.1992H50.0003Z" fill="url(#paint3_linear_806_15812)"/>
<defs>
<linearGradient id="paint0_linear_806_15812" x1="-365.419" y1="53.4308" x2="256.571" y2="53.4308" gradientUnits="userSpaceOnUse">
<stop stop-color="white" stop-opacity="0"/>
<stop offset="0.16" stop-color="#CADBF9" stop-opacity="0.22"/>
<stop offset="0.37" stop-color="#89AFF3" stop-opacity="0.49"/>
<stop offset="0.57" stop-color="#558CEE" stop-opacity="0.71"/>
<stop offset="0.74" stop-color="#3073EB" stop-opacity="0.87"/>
<stop offset="0.88" stop-color="#1963E8" stop-opacity="0.97"/>
<stop offset="0.97" stop-color="#115EE8"/>
</linearGradient>
<linearGradient id="paint1_linear_806_15812" x1="27.2402" y1="25.6402" x2="68.0002" y2="75.2602" gradientUnits="userSpaceOnUse">
<stop stop-color="white" stop-opacity="0"/>
<stop offset="0.16" stop-color="#CADBF9" stop-opacity="0.22"/>
<stop offset="0.37" stop-color="#89AFF3" stop-opacity="0.49"/>
<stop offset="0.57" stop-color="#558CEE" stop-opacity="0.71"/>
<stop offset="0.74" stop-color="#3073EB" stop-opacity="0.87"/>
<stop offset="0.88" stop-color="#1963E8" stop-opacity="0.97"/>
<stop offset="0.97" stop-color="#115EE8"/>
</linearGradient>
<linearGradient id="paint2_linear_806_15812" x1="56.4504" y1="34.7586" x2="30.5804" y2="61.4086" gradientUnits="userSpaceOnUse">
<stop offset="0.68" stop-color="white"/>
<stop offset="1" stop-color="white" stop-opacity="0"/>
</linearGradient>
<linearGradient id="paint3_linear_806_15812" x1="66.8503" y1="44.8392" x2="40.9703" y2="71.4992" gradientUnits="userSpaceOnUse">
<stop offset="0.68" stop-color="white"/>
<stop offset="1" stop-color="white" stop-opacity="0"/>
</linearGradient>
</defs>
</svg>
