<svg width="100" height="100" viewBox="0 0 100 100" fill="none" xmlns="http://www.w3.org/2000/svg">
<path d="M54.4998 82.6891C71.1788 82.6891 84.6998 69.1681 84.6998 52.4891C84.6998 35.8101 71.1788 22.2891 54.4998 22.2891C37.8208 22.2891 24.2998 35.8101 24.2998 52.4891C24.2998 69.1681 37.8208 82.6891 54.4998 82.6891Z" fill="url(#paint0_linear_806_15747)"/>
<path d="M47.89 81.1003C65.5024 81.1003 79.78 66.8227 79.78 49.2103C79.78 31.598 65.5024 17.3203 47.89 17.3203C30.2776 17.3203 16 31.598 16 49.2103C16 66.8227 30.2776 81.1003 47.89 81.1003Z" fill="url(#paint1_linear_806_15747)"/>
<path d="M47 31V51.64L61.25 42.81" stroke="white" stroke-width="2" stroke-linecap="round" stroke-linejoin="round"/>
<defs>
<linearGradient id="paint0_linear_806_15747" x1="54.4972" y1="81.6901" x2="54.4972" y2="26.2219" gradientUnits="userSpaceOnUse">
<stop stop-color="white" stop-opacity="0"/>
<stop offset="0.916667" stop-color="#1963E8" stop-opacity="0.97"/>
</linearGradient>
<linearGradient id="paint1_linear_806_15747" x1="79.79" y1="49.2003" x2="16" y2="49.2003" gradientUnits="userSpaceOnUse">
<stop stop-color="white" stop-opacity="0"/>
<stop offset="0.16" stop-color="#CADBF9" stop-opacity="0.22"/>
<stop offset="0.37" stop-color="#89AFF3" stop-opacity="0.49"/>
<stop offset="0.57" stop-color="#558CEE" stop-opacity="0.71"/>
<stop offset="0.74" stop-color="#3073EB" stop-opacity="0.87"/>
<stop offset="0.88" stop-color="#1963E8" stop-opacity="0.97"/>
<stop offset="0.97" stop-color="#115EE8"/>
</linearGradient>
</defs>
</svg>
