<svg width="100" height="100" viewBox="0 0 100 100" fill="none" xmlns="http://www.w3.org/2000/svg">
<path d="M20.04 29.1797L20 69.5397C20 70.6797 20.69 71.6997 21.75 72.1097L50.05 83.1697V40.5097L20.04 29.1797Z" fill="url(#paint0_linear_806_15658)"/>
<path d="M80.0696 29.1797L80.1096 69.5397C80.1096 70.6797 79.4196 71.6997 78.3596 72.1097L50.0596 83.1697V40.5097L80.0696 29.1797Z" fill="url(#paint1_linear_806_15658)"/>
<path d="M80.07 71.8519L50.06 83.1819L20.04 71.8519L49 59.8819C49.67 59.6019 50.43 59.6019 51.11 59.8819L80.07 71.8519Z" fill="url(#paint2_linear_806_15658)"/>
<path d="M80.07 29.17L50.06 40.5L20.04 29.17L49 17.21C49.67 16.93 50.43 16.93 51.11 17.21L80.07 29.18V29.17Z" fill="url(#paint3_linear_806_15658)"/>
<defs>
<linearGradient id="paint0_linear_806_15658" x1="64.7952" y1="76.7014" x2="34.8313" y2="28.6379" gradientUnits="userSpaceOnUse">
<stop stop-color="white" stop-opacity="0"/>
<stop offset="0.16" stop-color="#CADBF9" stop-opacity="0.22"/>
<stop offset="0.37" stop-color="#89AFF3" stop-opacity="0.49"/>
<stop offset="0.57" stop-color="#558CEE" stop-opacity="0.71"/>
<stop offset="0.74" stop-color="#3073EB" stop-opacity="0.87"/>
<stop offset="0.88" stop-color="#1963E8" stop-opacity="0.97"/>
<stop offset="0.97" stop-color="#115EE8"/>
</linearGradient>
<linearGradient id="paint1_linear_806_15658" x1="94.8547" y1="76.7014" x2="64.8909" y2="28.6379" gradientUnits="userSpaceOnUse">
<stop stop-color="white" stop-opacity="0"/>
<stop offset="0.16" stop-color="#CADBF9" stop-opacity="0.22"/>
<stop offset="0.37" stop-color="#89AFF3" stop-opacity="0.49"/>
<stop offset="0.57" stop-color="#558CEE" stop-opacity="0.71"/>
<stop offset="0.74" stop-color="#3073EB" stop-opacity="0.87"/>
<stop offset="0.88" stop-color="#1963E8" stop-opacity="0.97"/>
<stop offset="0.97" stop-color="#115EE8"/>
</linearGradient>
<linearGradient id="paint2_linear_806_15658" x1="109.526" y1="80.3652" x2="105.648" y2="51.8287" gradientUnits="userSpaceOnUse">
<stop stop-color="white" stop-opacity="0"/>
<stop offset="0.16" stop-color="#CADBF9" stop-opacity="0.22"/>
<stop offset="0.37" stop-color="#89AFF3" stop-opacity="0.49"/>
<stop offset="0.57" stop-color="#558CEE" stop-opacity="0.71"/>
<stop offset="0.74" stop-color="#3073EB" stop-opacity="0.87"/>
<stop offset="0.88" stop-color="#1963E8" stop-opacity="0.97"/>
<stop offset="0.97" stop-color="#115EE8"/>
</linearGradient>
<linearGradient id="paint3_linear_806_15658" x1="109.526" y1="37.6846" x2="105.651" y2="9.15968" gradientUnits="userSpaceOnUse">
<stop stop-color="white" stop-opacity="0"/>
<stop offset="0.16" stop-color="#CADBF9" stop-opacity="0.22"/>
<stop offset="0.37" stop-color="#89AFF3" stop-opacity="0.49"/>
<stop offset="0.57" stop-color="#558CEE" stop-opacity="0.71"/>
<stop offset="0.74" stop-color="#3073EB" stop-opacity="0.87"/>
<stop offset="0.88" stop-color="#1963E8" stop-opacity="0.97"/>
<stop offset="0.97" stop-color="#115EE8"/>
</linearGradient>
</defs>
</svg>
