<svg width="100" height="100" viewBox="0 0 100 100" fill="none" xmlns="http://www.w3.org/2000/svg">
<path d="M68.9346 84.1417L70.2228 71.2833L83 70.088L50.5058 37.5938L36.4404 51.6475L68.9346 84.1417Z" fill="url(#paint0_linear_806_15831)"/>
<path d="M32.0537 84.1417L30.7656 71.2833L18 70.088L50.4942 37.5938L64.5479 51.6475L32.0537 84.1417Z" fill="url(#paint1_linear_806_15831)"/>
<path d="M50.4707 65.0411C64.2892 65.0411 75.4913 53.839 75.4913 40.0205C75.4913 26.2021 64.2892 15 50.4707 15C36.6523 15 25.4502 26.2021 25.4502 40.0205C25.4502 53.839 36.6523 65.0411 50.4707 65.0411Z" fill="url(#paint2_linear_806_15831)"/>
<defs>
<linearGradient id="paint0_linear_806_15831" x1="59.7219" y1="84.8211" x2="59.7219" y2="42.9868" gradientUnits="userSpaceOnUse">
<stop stop-color="white" stop-opacity="0"/>
<stop offset="0.16" stop-color="#CADBF9" stop-opacity="0.22"/>
<stop offset="0.37" stop-color="#89AFF3" stop-opacity="0.49"/>
<stop offset="0.57" stop-color="#558CEE" stop-opacity="0.71"/>
<stop offset="0.74" stop-color="#3073EB" stop-opacity="0.87"/>
<stop offset="0.88" stop-color="#1963E8" stop-opacity="0.97"/>
<stop offset="0.97" stop-color="#115EE8"/>
</linearGradient>
<linearGradient id="paint1_linear_806_15831" x1="41.2796" y1="84.8211" x2="41.2796" y2="42.9868" gradientUnits="userSpaceOnUse">
<stop stop-color="white" stop-opacity="0"/>
<stop offset="0.16" stop-color="#CADBF9" stop-opacity="0.22"/>
<stop offset="0.37" stop-color="#89AFF3" stop-opacity="0.49"/>
<stop offset="0.57" stop-color="#558CEE" stop-opacity="0.71"/>
<stop offset="0.74" stop-color="#3073EB" stop-opacity="0.87"/>
<stop offset="0.88" stop-color="#1963E8" stop-opacity="0.97"/>
<stop offset="0.97" stop-color="#115EE8"/>
</linearGradient>
<linearGradient id="paint2_linear_806_15831" x1="68.6675" y1="58.2173" x2="36.8812" y2="26.4194" gradientUnits="userSpaceOnUse">
<stop stop-color="white" stop-opacity="0"/>
<stop offset="0.16" stop-color="#CADBF9" stop-opacity="0.22"/>
<stop offset="0.37" stop-color="#89AFF3" stop-opacity="0.49"/>
<stop offset="0.57" stop-color="#558CEE" stop-opacity="0.71"/>
<stop offset="0.74" stop-color="#3073EB" stop-opacity="0.87"/>
<stop offset="0.88" stop-color="#1963E8" stop-opacity="0.97"/>
<stop offset="0.97" stop-color="#115EE8"/>
</linearGradient>
</defs>
</svg>
