<svg width="100" height="100" viewBox="0 0 100 100" fill="none" xmlns="http://www.w3.org/2000/svg">
<path d="M19.3332 69.0702C16.3404 58.6368 33.9491 49.6769 54.4682 51.1961C68.0316 52.2029 78.6939 57.6209 80.6707 64.5216C83.6635 74.9551 66.0548 83.915 45.5357 82.3957C31.9723 81.389 21.31 75.9709 19.3332 69.0702Z" fill="url(#paint0_linear_806_15643)"/>
<path d="M19.3332 58.0312C16.3404 47.5978 33.9491 38.6378 54.4682 40.1571C68.0316 41.1638 78.6939 46.5819 80.6707 53.4826C83.6635 63.916 66.0548 72.8759 45.5357 71.3567C31.9723 70.3499 21.31 64.9319 19.3332 58.0312Z" fill="url(#paint1_linear_806_15643)"/>
<path d="M19.3332 47.0038C16.3404 36.5704 33.9491 27.6105 54.4682 29.1297C68.0316 30.1365 78.6939 35.5545 80.6707 42.4552C83.6635 52.8887 66.0548 61.8486 45.5357 60.3293C31.9723 59.3226 21.31 53.9045 19.3332 47.0038Z" fill="url(#paint2_linear_806_15643)"/>
<path d="M50.001 67.3849V18" stroke="url(#paint3_linear_806_15643)" stroke-width="2" stroke-linecap="round" stroke-linejoin="round"/>
<path d="M57.6068 24.498L50.0014 18L42.396 24.498" stroke="#125FE8" stroke-width="2" stroke-linecap="round" stroke-linejoin="round"/>
<defs>
<linearGradient id="paint0_linear_806_15643" x1="114.91" y1="111.566" x2="76.4882" y2="84.9014" gradientUnits="userSpaceOnUse">
<stop stop-color="white" stop-opacity="0"/>
<stop offset="0.16" stop-color="#CADBF9" stop-opacity="0.22"/>
<stop offset="0.37" stop-color="#89AFF3" stop-opacity="0.49"/>
<stop offset="0.57" stop-color="#558CEE" stop-opacity="0.71"/>
<stop offset="0.74" stop-color="#3073EB" stop-opacity="0.87"/>
<stop offset="0.88" stop-color="#1963E8" stop-opacity="0.97"/>
<stop offset="0.97" stop-color="#115EE8"/>
</linearGradient>
<linearGradient id="paint1_linear_806_15643" x1="80.4391" y1="103.252" x2="105.383" y2="67.309" gradientUnits="userSpaceOnUse">
<stop stop-color="white" stop-opacity="0"/>
<stop offset="0.16" stop-color="#CADBF9" stop-opacity="0.22"/>
<stop offset="0.37" stop-color="#89AFF3" stop-opacity="0.49"/>
<stop offset="0.57" stop-color="#558CEE" stop-opacity="0.71"/>
<stop offset="0.74" stop-color="#3073EB" stop-opacity="0.87"/>
<stop offset="0.88" stop-color="#1963E8" stop-opacity="0.97"/>
<stop offset="0.97" stop-color="#115EE8"/>
</linearGradient>
<linearGradient id="paint2_linear_806_15643" x1="111.428" y1="56.7198" x2="104.756" y2="18.9105" gradientUnits="userSpaceOnUse">
<stop stop-color="white" stop-opacity="0"/>
<stop offset="0.16" stop-color="#CADBF9" stop-opacity="0.22"/>
<stop offset="0.37" stop-color="#89AFF3" stop-opacity="0.49"/>
<stop offset="0.57" stop-color="#558CEE" stop-opacity="0.71"/>
<stop offset="0.74" stop-color="#3073EB" stop-opacity="0.87"/>
<stop offset="0.88" stop-color="#1963E8" stop-opacity="0.97"/>
<stop offset="0.97" stop-color="#115EE8"/>
</linearGradient>
<linearGradient id="paint3_linear_806_15643" x1="50.5009" y1="66.5681" x2="50.5009" y2="21.2156" gradientUnits="userSpaceOnUse">
<stop stop-color="white"/>
<stop offset="0.916667" stop-color="#1963E8" stop-opacity="0.97"/>
</linearGradient>
</defs>
</svg>
