<svg width="100" height="100" viewBox="0 0 100 100" fill="none" xmlns="http://www.w3.org/2000/svg">
<path d="M95 49.5C95 24.9233 75.0767 5 50.5 5C25.9233 5 6 24.9233 6 49.5C6 74.0767 25.9233 94 50.5 94C75.0767 94 95 74.0767 95 49.5Z" fill="url(#paint0_linear_806_16468)"/>
<path d="M12.3628 49.5002C12.3628 70.5627 29.4373 87.6372 50.4998 87.6372C71.5622 87.6372 88.6367 70.5627 88.6367 49.5002C88.6367 28.4378 71.5622 11.3633 50.4998 11.3633C29.4373 11.3633 12.3628 28.4378 12.3628 49.5002Z" fill="url(#paint1_linear_806_16468)"/>
<path d="M50.4995 32.6211V67.2107" stroke="white" stroke-width="2" stroke-linecap="round" stroke-linejoin="round"/>
<path d="M39.6646 41.2891V58.5287" stroke="white" stroke-width="2" stroke-linecap="round" stroke-linejoin="round"/>
<path d="M28.6636 37.2773V62.5501" stroke="white" stroke-width="2" stroke-linecap="round" stroke-linejoin="round"/>
<path d="M61.3213 41.2891V58.5287" stroke="white" stroke-width="2" stroke-linecap="round" stroke-linejoin="round"/>
<path d="M72.3354 37.2773V62.5501" stroke="white" stroke-width="2" stroke-linecap="round" stroke-linejoin="round"/>
<defs>
<linearGradient id="paint0_linear_806_16468" x1="84.3373" y1="-38.6712" x2="-13.8631" y2="-4.59685" gradientUnits="userSpaceOnUse">
<stop stop-color="white" stop-opacity="0"/>
<stop offset="0.16" stop-color="#CADBF9" stop-opacity="0.22"/>
<stop offset="0.37" stop-color="#89AFF3" stop-opacity="0.49"/>
<stop offset="0.57" stop-color="#558CEE" stop-opacity="0.71"/>
<stop offset="0.74" stop-color="#3073EB" stop-opacity="0.87"/>
<stop offset="0.88" stop-color="#1963E8" stop-opacity="0.97"/>
<stop offset="0.97" stop-color="#115EE8"/>
</linearGradient>
<linearGradient id="paint1_linear_806_16468" x1="21.5009" y1="125.064" x2="105.66" y2="95.8618" gradientUnits="userSpaceOnUse">
<stop stop-color="white" stop-opacity="0"/>
<stop offset="0.16" stop-color="#CADBF9" stop-opacity="0.22"/>
<stop offset="0.37" stop-color="#89AFF3" stop-opacity="0.49"/>
<stop offset="0.57" stop-color="#558CEE" stop-opacity="0.71"/>
<stop offset="0.74" stop-color="#3073EB" stop-opacity="0.87"/>
<stop offset="0.88" stop-color="#1963E8" stop-opacity="0.97"/>
<stop offset="0.97" stop-color="#115EE8"/>
</linearGradient>
</defs>
</svg>
