<svg width="100" height="100" viewBox="0 0 100 100" fill="none" xmlns="http://www.w3.org/2000/svg">
<path d="M53.7081 64.1327H12.0068C12.0068 64.1327 7.11914 64.1327 7.11914 55.9435C7.11914 50.0201 15.8694 45.0893 29.0002 42.7696C42.131 40.4498 41.872 31.6132 59.6315 31.6564C77.391 31.6996 79.9697 42.2517 85.6234 42.2517H93.1652C95.5389 42.2517 97.4594 44.1722 97.4594 46.5459V59.8277C97.4594 62.2014 95.5389 64.1219 93.1652 64.1219H53.7081V64.1327Z" fill="url(#paint0_linear_806_15692)"/>
<path d="M49.565 61.4765H7.86371C7.86371 61.4765 2.97607 61.4765 2.97607 53.2873C2.97607 47.3638 11.7263 42.4331 24.8571 40.1133C37.9771 37.7936 37.729 28.957 55.4884 29.0002C73.2479 29.0433 75.8266 39.5954 81.4803 39.5954H89.0221C91.3958 39.5954 93.3163 41.5159 93.3163 43.8896V57.1715C93.3163 59.5452 91.3958 61.4657 89.0221 61.4657H49.565V61.4765Z" fill="url(#paint1_linear_806_15692)"/>
<path d="M77.4234 69.9981C80.9987 69.9981 83.8971 67.0998 83.8971 63.5245C83.8971 59.9491 80.9987 57.0508 77.4234 57.0508C73.8481 57.0508 70.9497 59.9491 70.9497 63.5245C70.9497 67.0998 73.8481 69.9981 77.4234 69.9981Z" fill="url(#paint2_linear_806_15692)"/>
<path d="M24.5552 69.9981C28.1305 69.9981 31.0289 67.0998 31.0289 63.5245C31.0289 59.9491 28.1305 57.0508 24.5552 57.0508C20.9799 57.0508 18.0815 59.9491 18.0815 63.5245C18.0815 67.0998 20.9799 69.9981 24.5552 69.9981Z" fill="url(#paint3_linear_806_15692)"/>
<defs>
<linearGradient id="paint0_linear_806_15692" x1="93.3918" y1="44.0427" x2="8.62967" y2="61.2519" gradientUnits="userSpaceOnUse">
<stop stop-color="white" stop-opacity="0"/>
<stop offset="0.12" stop-color="#D6E2F8" stop-opacity="0.17"/>
<stop offset="0.35" stop-color="#91B1EE" stop-opacity="0.46"/>
<stop offset="0.55" stop-color="#5A8AE5" stop-opacity="0.7"/>
<stop offset="0.73" stop-color="#336FDF" stop-opacity="0.86"/>
<stop offset="0.87" stop-color="#1B5EDC" stop-opacity="0.96"/>
<stop offset="0.97" stop-color="#1358DB"/>
</linearGradient>
<linearGradient id="paint1_linear_806_15692" x1="2.97607" y1="45.2383" x2="93.3163" y2="45.2383" gradientUnits="userSpaceOnUse">
<stop stop-color="white" stop-opacity="0"/>
<stop offset="0.12" stop-color="#D6E2F8" stop-opacity="0.17"/>
<stop offset="0.35" stop-color="#91B1EE" stop-opacity="0.46"/>
<stop offset="0.55" stop-color="#5A8AE5" stop-opacity="0.7"/>
<stop offset="0.73" stop-color="#336FDF" stop-opacity="0.86"/>
<stop offset="0.87" stop-color="#1B5EDC" stop-opacity="0.96"/>
<stop offset="0.97" stop-color="#1358DB"/>
</linearGradient>
<linearGradient id="paint2_linear_806_15692" x1="90.2502" y1="68.447" x2="85.2932" y2="54.1612" gradientUnits="userSpaceOnUse">
<stop stop-color="white" stop-opacity="0"/>
<stop offset="0.16" stop-color="#CADBF9" stop-opacity="0.22"/>
<stop offset="0.37" stop-color="#89AFF3" stop-opacity="0.49"/>
<stop offset="0.57" stop-color="#558CEE" stop-opacity="0.71"/>
<stop offset="0.74" stop-color="#3073EB" stop-opacity="0.87"/>
<stop offset="0.88" stop-color="#1963E8" stop-opacity="0.97"/>
<stop offset="0.97" stop-color="#115EE8"/>
</linearGradient>
<linearGradient id="paint3_linear_806_15692" x1="37.382" y1="68.447" x2="32.425" y2="54.1612" gradientUnits="userSpaceOnUse">
<stop stop-color="white" stop-opacity="0"/>
<stop offset="0.16" stop-color="#CADBF9" stop-opacity="0.22"/>
<stop offset="0.37" stop-color="#89AFF3" stop-opacity="0.49"/>
<stop offset="0.57" stop-color="#558CEE" stop-opacity="0.71"/>
<stop offset="0.74" stop-color="#3073EB" stop-opacity="0.87"/>
<stop offset="0.88" stop-color="#1963E8" stop-opacity="0.97"/>
<stop offset="0.97" stop-color="#115EE8"/>
</linearGradient>
</defs>
</svg>
