<svg width="100" height="100" viewBox="0 0 100 100" fill="none" xmlns="http://www.w3.org/2000/svg">
<path d="M17.33 25H88.14C88.87 25 89.47 25.59 89.47 26.33V70.32C89.47 71.05 88.88 71.65 88.14 71.65H17.33C16.6 71.65 16 71.05 16 70.32V26.33C16 25.6 16.6 25 17.33 25Z" fill="url(#paint0_linear_806_15611)"/>
<path d="M59.2704 77.2109H36.2004C35.4824 77.2109 34.9004 77.793 34.9004 78.5109V81.5509C34.9004 82.2689 35.4824 82.8509 36.2004 82.8509H59.2704C59.9884 82.8509 60.5704 82.2689 60.5704 81.5509V78.5109C60.5704 77.793 59.9884 77.2109 59.2704 77.2109Z" fill="url(#paint1_linear_806_15611)"/>
<path d="M84.47 18.33C84.47 17.6 83.88 17 83.14 17H12.33C11.59 17 11 17.59 11 18.33V54.11H84.47V18.33Z" fill="url(#paint2_linear_806_15611)"/>
<path d="M11 54.1094V66.0894C11 66.8194 11.59 67.4194 12.33 67.4194H83.15C83.88 67.4194 84.48 66.8294 84.48 66.0894V54.1094H11Z" fill="url(#paint3_linear_806_15611)"/>
<path d="M41.64 65.3984H53.83C54.3 65.3984 54.68 65.7784 54.68 66.2484V79.2784C54.68 79.8584 54.21 80.3284 53.63 80.3284H41.84C41.26 80.3284 40.79 79.8584 40.79 79.2784V66.2484C40.79 65.7784 41.17 65.3984 41.64 65.3984Z" fill="url(#paint4_linear_806_15611)"/>
<defs>
<linearGradient id="paint0_linear_806_15611" x1="16" y1="48.32" x2="89.47" y2="48.32" gradientUnits="userSpaceOnUse">
<stop stop-color="white" stop-opacity="0"/>
<stop offset="0.16" stop-color="#CADBF9" stop-opacity="0.22"/>
<stop offset="0.37" stop-color="#89AFF3" stop-opacity="0.49"/>
<stop offset="0.57" stop-color="#558CEE" stop-opacity="0.71"/>
<stop offset="0.74" stop-color="#3073EB" stop-opacity="0.87"/>
<stop offset="0.88" stop-color="#1963E8" stop-opacity="0.97"/>
<stop offset="0.97" stop-color="#115EE8"/>
</linearGradient>
<linearGradient id="paint1_linear_806_15611" x1="47.7304" y1="82.8509" x2="47.7304" y2="77.2109" gradientUnits="userSpaceOnUse">
<stop stop-color="white" stop-opacity="0"/>
<stop offset="0.16" stop-color="#CADBF9" stop-opacity="0.22"/>
<stop offset="0.37" stop-color="#89AFF3" stop-opacity="0.49"/>
<stop offset="0.57" stop-color="#558CEE" stop-opacity="0.71"/>
<stop offset="0.74" stop-color="#3073EB" stop-opacity="0.87"/>
<stop offset="0.88" stop-color="#1963E8" stop-opacity="0.97"/>
<stop offset="0.97" stop-color="#115EE8"/>
</linearGradient>
<linearGradient id="paint2_linear_806_15611" x1="47.74" y1="66.59" x2="47.74" y2="20.29" gradientUnits="userSpaceOnUse">
<stop stop-color="white" stop-opacity="0"/>
<stop offset="0.16" stop-color="#CADBF9" stop-opacity="0.22"/>
<stop offset="0.37" stop-color="#89AFF3" stop-opacity="0.49"/>
<stop offset="0.57" stop-color="#558CEE" stop-opacity="0.71"/>
<stop offset="0.74" stop-color="#3073EB" stop-opacity="0.87"/>
<stop offset="0.88" stop-color="#1963E8" stop-opacity="0.97"/>
<stop offset="0.97" stop-color="#115EE8"/>
</linearGradient>
<linearGradient id="paint3_linear_806_15611" x1="84.47" y1="60.7594" x2="11" y2="60.7594" gradientUnits="userSpaceOnUse">
<stop stop-color="white" stop-opacity="0"/>
<stop offset="0.16" stop-color="#CADBF9" stop-opacity="0.22"/>
<stop offset="0.37" stop-color="#89AFF3" stop-opacity="0.49"/>
<stop offset="0.57" stop-color="#558CEE" stop-opacity="0.71"/>
<stop offset="0.74" stop-color="#3073EB" stop-opacity="0.87"/>
<stop offset="0.88" stop-color="#1963E8" stop-opacity="0.97"/>
<stop offset="0.97" stop-color="#115EE8"/>
</linearGradient>
<linearGradient id="paint4_linear_806_15611" x1="47.73" y1="80.3284" x2="47.73" y2="65.3984" gradientUnits="userSpaceOnUse">
<stop stop-color="white" stop-opacity="0"/>
<stop offset="0.16" stop-color="#CADBF9" stop-opacity="0.22"/>
<stop offset="0.37" stop-color="#89AFF3" stop-opacity="0.49"/>
<stop offset="0.57" stop-color="#558CEE" stop-opacity="0.71"/>
<stop offset="0.74" stop-color="#3073EB" stop-opacity="0.87"/>
<stop offset="0.88" stop-color="#1963E8" stop-opacity="0.97"/>
<stop offset="0.97" stop-color="#115EE8"/>
</linearGradient>
</defs>
</svg>
