<svg width="100" height="100" viewBox="0 0 100 100" fill="none" xmlns="http://www.w3.org/2000/svg">
<path d="M66.1897 89.0798H36.1497C35.4597 89.0798 34.9097 88.5198 34.9097 87.8398L26.2197 29.8298C26.2197 29.1398 26.7797 28.5898 27.4597 28.5898H74.8897C75.5797 28.5898 76.1297 29.1498 76.1297 29.8298L67.4297 87.8398C67.4297 88.5298 66.8697 89.0798 66.1897 89.0798Z" fill="url(#paint0_linear_806_15724)"/>
<path d="M60.97 86.1697H30.94C30.25 86.1697 29.7 85.6097 29.7 84.9297L21 26.9197C21 26.2297 21.56 25.6797 22.24 25.6797H69.67C70.36 25.6797 70.91 26.2397 70.91 26.9197L62.21 84.9297C62.21 85.6197 61.65 86.1697 60.97 86.1697Z" fill="url(#paint1_linear_806_15724)"/>
<path d="M47.8799 63.96L60.2399 15.45L79.5099 10" stroke="url(#paint2_linear_806_15724)" stroke-width="4" stroke-linecap="round" stroke-linejoin="round"/>
<defs>
<linearGradient id="paint0_linear_806_15724" x1="75.3097" y1="58.8398" x2="29.4697" y2="58.8398" gradientUnits="userSpaceOnUse">
<stop stop-color="#115EE8"/>
<stop offset="0.13" stop-color="#236AEA" stop-opacity="0.92"/>
<stop offset="0.15" stop-color="#2A6FEA" stop-opacity="0.88"/>
<stop offset="0.32" stop-color="#6A9AF0" stop-opacity="0.62"/>
<stop offset="0.49" stop-color="#9FBEF5" stop-opacity="0.4"/>
<stop offset="0.65" stop-color="#C8DAF9" stop-opacity="0.22"/>
<stop offset="0.79" stop-color="#E6EEFC" stop-opacity="0.1"/>
<stop offset="0.91" stop-color="#F8FAFE" stop-opacity="0.03"/>
<stop offset="1" stop-color="white" stop-opacity="0"/>
</linearGradient>
<linearGradient id="paint1_linear_806_15724" x1="70.1" y1="55.9297" x2="24.26" y2="55.9297" gradientUnits="userSpaceOnUse">
<stop stop-color="white" stop-opacity="0"/>
<stop offset="0.16" stop-color="#CADBF9" stop-opacity="0.22"/>
<stop offset="0.37" stop-color="#89AFF3" stop-opacity="0.49"/>
<stop offset="0.57" stop-color="#558CEE" stop-opacity="0.71"/>
<stop offset="0.74" stop-color="#3073EB" stop-opacity="0.87"/>
<stop offset="0.88" stop-color="#1963E8" stop-opacity="0.97"/>
<stop offset="0.97" stop-color="#115EE8"/>
</linearGradient>
<linearGradient id="paint2_linear_806_15724" x1="80.5099" y1="36.98" x2="46.8799" y2="36.98" gradientUnits="userSpaceOnUse">
<stop offset="0.38" stop-color="#115EE8"/>
<stop offset="1" stop-color="white"/>
</linearGradient>
</defs>
</svg>
