<?xml version="1.0" encoding="UTF-8"?>
<svg id="_레이어_1" data-name="레이어_1" xmlns="http://www.w3.org/2000/svg" version="1.1" viewBox="0 0 755 796">
  <!-- Generator: Adobe Illustrator 29.0.1, SVG Export Plug-In . SVG Version: 2.1.0 Build 192)  -->
  <defs>
    <style>
      .st0 {
        fill: #fff;
      }
    </style>
  </defs>
  <path class="st0" d="M210.2,486c3.3-44.8,23.9-91.6,61.3-126.1,7.3-6.8,24-17.6,32.5-22.8,2.6-1.9,98.2-61.6,98.2-61.6,8.8-4.2,24.6-6.5,34.9-6.5s24.1,3.4,34.2,9.4c-1.2-31.4-35.8-64.3-65.3-81.9-53-31.7-119.4-32.9-151.2-17.4-15.5,7.6-108,56.8-108,56.8-57,31.2-95.8,92.3-95.8,162.5s38.7,131.3,95.9,162.5c0,0,52.5,28,102.7,55.1-21.5-32.2-43.1-78.1-39.2-129.7h0Z"/>
  <path class="st0" d="M444.6,71s-83.2,48.7-140.5,80.6c33.7-.3,75.1,5.5,112.7,28,41.3,24.6,74.7,66.7,90.4,121.1,2.4,8.4,3.9,27.7,4.5,37.6,1.2,21.5.6,107.3.6,107.3,0,26.7-15.3,56-37.4,67.4,32.4,21.2,106,7.2,141.7-15.8,43.1-27.7,81.4-80.8,81.4-123.3s6.1-136.2,6.1-136.2c0-101.5-81.6-183.9-182.2-183.9s-53.7,6.2-77.2,17.3Z"/>
  <path class="st0" d="M627.2,513.9c-45,29-113.6,39.8-180.5,19.7-30.2-9.2-99.9-54.7-130.4-75.1-19.9-13.3-41.9-34.4-41.9-60.6s.2-3,.3-4.5c-26,14.8-41.4,61.9-43.8,93.2-5.2,69.5,40.2,138.9,75,158.2,26.3,14.6,138.8,79.6,138.8,79.6,23.4,11,49.6,17.3,77.2,17.3,100.4,0,181.7-82,182.1-183.2,0,0-4.1-64.2-5.6-125.5-16,29.9-38.7,59.8-71.4,80.9h.2Z"/>
</svg>