<svg width="112" height="36" viewBox="0 0 112 36" fill="none" xmlns="http://www.w3.org/2000/svg">
<g clip-path="url(#clip0_1101_5827)">
<path d="M47.4882 5.50297H42.6311C42.3038 5.52516 41.5052 5.68493 41.4878 6.71451V10.287C41.5052 11.2545 42.2078 11.4542 42.5657 11.4897H47.5536C47.894 11.4542 48.5443 11.2678 48.6228 10.4201V6.5725C48.5399 5.66717 47.8024 5.52072 47.4882 5.49854V5.50297Z" fill="white"/>
<path d="M84.3417 5.50297H79.4847C79.1574 5.52516 78.3631 5.68493 78.3413 6.70564V10.2914C78.3588 11.25 79.0614 11.4542 79.4192 11.4897H84.4072C84.7475 11.4542 85.4021 11.2678 85.4763 10.4201V6.57694C85.3934 5.66717 84.6559 5.52072 84.3417 5.49854V5.50297Z" fill="white"/>
<path d="M109.447 17.0191C108.011 15.9584 106.126 15.346 103.342 15.0442L99.768 14.6404C98.7425 14.5295 97.8391 14.2277 97.2806 13.8194C96.8398 13.4954 96.5998 13.025 96.5998 12.4969C96.5998 11.9067 96.8922 9.98507 100.667 9.98507C102.408 9.98507 104.385 10.1404 106.074 11.2277C106.336 11.3652 106.999 11.6093 107.767 11.1256L110.739 8.80016C111.232 8.20992 110.865 7.72176 110.612 7.48655C108.055 5.6759 105.013 4.86377 100.842 4.86377C94.06 4.86377 89.683 7.9259 89.683 12.6655C89.683 14.8357 90.4554 16.5043 92.0526 17.7691C93.4927 18.8786 95.5175 19.5664 98.2537 19.8904L101.906 20.2942C103.133 20.4407 103.752 20.6271 104.272 21.0132C104.747 21.3638 105 21.9274 105 22.6419C105 24.2661 103.399 25.0871 100.248 25.0871C97.5031 25.0871 95.3997 24.5812 93.8418 23.5516C93.8418 23.5516 93.0345 22.9703 92.0482 23.5694L88.9804 26.0013C88.4785 26.5871 88.8364 27.0753 89.0895 27.3105C91.8911 29.4052 95.2426 30.3105 100.161 30.3105C107.243 30.3105 112.004 27.1729 112.004 22.5087C112.004 20.1389 111.145 18.2928 109.456 17.0235L109.447 17.0191Z" fill="white"/>
<path d="M47.4882 13.9614H42.6311C42.3038 13.9836 41.5052 14.1389 41.4878 15.173V28.8993C41.5052 29.8668 42.2078 30.0665 42.5657 30.1064H47.5536C47.894 30.0665 48.5443 29.8845 48.6228 29.0369V15.0354C48.5399 14.1256 47.8024 13.9792 47.4882 13.9614Z" fill="white"/>
<path d="M63.312 16.8728V19.7486C63.3338 20.0415 63.5127 20.7693 64.6517 20.7826H74.1956C75.2604 20.7693 75.4873 20.1302 75.5266 19.8063V16.8107C75.4873 16.5001 75.2822 15.9143 74.344 15.8433H64.4946C63.4909 15.9187 63.3294 16.5888 63.3076 16.8684L63.312 16.8728Z" fill="white"/>
<path d="M84.3417 13.9614H79.4847C79.1574 13.9836 78.3631 14.1389 78.3413 15.1641V28.9082C78.3588 29.8668 79.0614 30.0665 79.4192 30.1108H84.4072C84.7475 30.0709 85.4021 29.8889 85.4763 29.0369V15.0398C85.3934 14.1301 84.6559 13.9836 84.3417 13.9614Z" fill="white"/>
<path d="M74.2434 17.6227C74.7278 17.7559 75.1817 18.0133 75.3999 18.4349C75.5875 18.8121 75.5177 19.2736 75.5089 19.6775C75.5002 20.1568 75.4828 20.6316 75.4479 21.1065C75.378 22.0473 75.2471 22.9881 74.9635 23.8934C74.5314 25.2692 73.615 26.4763 72.4542 27.4304C70.0933 29.3653 67.1608 30.3062 63.482 30.3062C60.1043 30.3062 57.2154 29.3742 54.8982 27.5369C51.7212 25.0207 51.7256 22.034 51.7256 17.9068V17.5784V17.25C51.7256 13.1227 51.7256 10.1405 54.8982 7.61977C57.2503 5.75587 60.0607 4.85498 63.482 4.85498C69.8053 4.85498 74.2129 7.73516 75.3824 12.5724C75.3955 12.892 75.3126 13.5088 74.5358 13.5843H69.91C68.3827 13.5665 68.1034 12.5547 68.1034 12.5547V12.5724C67.3659 10.8727 65.8778 10.0739 63.482 10.0739C62.1161 10.0739 60.9291 10.4733 60.1392 11.1923C59.1486 12.0665 58.8562 13.0073 58.8562 17.5784C58.8562 22.1494 59.1573 23.1346 60.1305 23.9911C60.9029 24.6967 62.0899 25.0784 63.482 25.0784C65.0486 25.0784 66.4058 24.71 67.2611 23.8846C67.8328 23.3343 68.195 22.176 68.1688 21.2795V19.7573L74.2434 17.6183V17.6227Z" fill="white"/>
<path d="M8.35691 22.5753C8.53146 20.241 9.61372 17.8002 11.5731 15.9984C11.9571 15.6434 12.8343 15.0798 13.2794 14.8091C13.4147 14.7114 18.4332 11.596 18.4332 11.596C18.8958 11.3786 19.7249 11.2588 20.266 11.2588C20.9206 11.2588 21.5316 11.4363 22.0596 11.7469C21.9942 10.1093 20.1831 8.39633 18.6339 7.47769C15.8541 5.82237 12.3673 5.76024 10.696 6.56793C9.87992 6.9629 5.02724 9.52799 5.02724 9.52799C2.03359 11.1522 0 14.3386 0 17.9999C0 21.6611 2.03359 24.8475 5.0316 26.4718C5.0316 26.4718 7.7896 27.9318 10.421 29.3431C9.29079 27.6656 8.16053 25.2691 8.36127 22.5798L8.35691 22.5753Z" fill="white"/>
<path d="M20.624 0.905325C20.624 0.905325 16.2601 3.45266 13.249 5.1213C15.0164 5.10799 17.1896 5.40976 19.1621 6.5858C21.3266 7.87278 23.0809 10.074 23.9057 12.9231C24.0323 13.3624 24.1108 14.3698 24.1414 14.8891C24.2068 16.0118 24.1719 20.503 24.1719 20.503C24.1719 21.9009 23.369 23.432 22.2082 24.0266C23.9057 25.1361 27.7678 24.4038 29.6443 23.2012C31.9048 21.75 33.9165 18.9719 33.9165 16.7485C33.9165 14.8713 34.2351 9.6213 34.2351 9.6213C34.2351 4.30917 29.9541 0 24.6738 0C23.2249 0 21.8547 0.323964 20.624 0.905325Z" fill="white"/>
<path d="M30.1942 24.0709C27.8333 25.5887 24.2287 26.1567 20.7157 25.1005C19.1273 24.6212 15.4703 22.2381 13.8687 21.1685C12.8258 20.4718 11.6693 19.3668 11.6693 17.9955C11.6693 17.9156 11.6824 17.8401 11.6868 17.7603C10.3209 18.5324 9.51355 20.9999 9.387 22.6419C9.11207 26.281 11.4991 29.9111 13.3233 30.923C14.7023 31.6863 20.611 35.0901 20.611 35.0901C21.8416 35.6671 23.2163 35.9955 24.6651 35.9955C29.9367 35.9955 34.209 31.704 34.2264 26.4052C34.2264 26.4052 34.0126 23.0458 33.934 19.8327C33.0962 21.3993 31.9005 22.9659 30.1854 24.0665L30.1942 24.0709Z" fill="white"/>
</g>
<defs>
<clipPath id="clip0_1101_5827">
<rect width="112" height="36" fill="white"/>
</clipPath>
</defs>
</svg>
