<svg width="113" height="36" viewBox="0 0 113 36" fill="none" xmlns="http://www.w3.org/2000/svg">
<g clip-path="url(#clip0_1101_7139)">
<path d="M63.312 16.8753V19.751C63.3338 20.0439 63.5127 20.7717 64.6517 20.7851H74.1956C75.2604 20.7717 75.4873 20.1327 75.5266 19.8087V16.8132C75.4873 16.5025 75.2822 15.9167 74.344 15.8457H64.4946C63.4909 15.9211 63.3294 16.5913 63.3076 16.8708L63.312 16.8753Z" fill="white"/>
<path d="M47.4882 5.50537H42.6311C42.3038 5.52756 41.5052 5.68732 41.4878 6.71691V10.2894C41.5052 11.2569 42.2078 11.4566 42.5657 11.4921H47.5536C47.894 11.4566 48.5443 11.2702 48.6228 10.4225V6.57934C48.5399 5.67401 47.8024 5.52756 47.4882 5.50537Z" fill="white"/>
<path d="M84.3412 5.50537H79.4842C79.1569 5.52756 78.3626 5.68732 78.3408 6.70803V10.2938C78.3583 11.2524 79.0609 11.4566 79.4187 11.4921H84.4067C84.7471 11.4566 85.4016 11.2702 85.4758 10.4225V6.58377C85.3929 5.67401 84.6554 5.52756 84.3412 5.50537Z" fill="white"/>
<path d="M109.447 17.0215C108.011 15.9609 106.126 15.3485 103.342 15.0467L99.7675 14.6428C98.742 14.5319 97.8386 14.2301 97.2801 13.8218C96.8393 13.4979 96.5993 13.0275 96.5993 12.4993C96.5993 11.9091 96.8917 9.98751 100.666 9.98751C102.408 9.98751 104.385 10.1428 106.073 11.2301C106.335 11.3677 106.999 11.6118 107.767 11.128L110.738 8.8026C111.232 8.21236 110.865 7.7242 110.612 7.48899C108.055 5.67834 105.013 4.86621 100.841 4.86621C94.0595 4.86621 89.6825 7.92834 89.6825 12.668C89.6825 14.8381 90.4549 16.5067 92.0521 17.7715C93.4922 18.881 95.517 19.5689 98.2532 19.8928L101.906 20.2967C103.132 20.4431 103.752 20.6295 104.271 21.0156C104.747 21.3662 105 21.9298 105 22.6443C105 24.2686 103.398 25.0896 100.248 25.0896C97.5026 25.0896 95.3992 24.5837 93.8413 23.5541C93.8413 23.5541 93.034 22.9727 92.0477 23.5718L88.9799 26.0038C88.478 26.5896 88.8359 27.0777 89.089 27.313C91.8906 29.4076 95.2421 30.313 100.16 30.313C107.243 30.313 112.004 27.1754 112.004 22.5112C112.004 20.1414 111.144 18.2952 109.455 17.026L109.447 17.0215Z" fill="white"/>
<path d="M47.4882 13.9639H42.6311C42.3038 13.9861 41.5052 14.1414 41.4878 15.1754V28.9017C41.5052 29.8692 42.2078 30.0689 42.5657 30.1088H47.5536C47.894 30.0689 48.5443 29.8869 48.6228 29.0393V15.0378C48.5399 14.1281 47.8024 13.9816 47.4882 13.9639Z" fill="white"/>
<path d="M84.3412 13.9639H79.4842C79.1569 13.9861 78.3626 14.1414 78.3408 15.1665V28.9106C78.3583 29.8692 79.0609 30.0689 79.4187 30.1133H84.4067C84.7471 30.0733 85.4016 29.8914 85.4758 29.0393V15.0423C85.3929 14.1325 84.6554 13.9861 84.3412 13.9639Z" fill="white"/>
<path d="M74.2434 17.6252C74.7278 17.7583 75.1817 18.0157 75.3999 18.4373C75.5875 18.8145 75.5177 19.2761 75.509 19.6799C75.5002 20.1592 75.4828 20.634 75.4479 21.1089C75.378 22.0497 75.2471 22.9906 74.9635 23.8959C74.5314 25.2716 73.615 26.4787 72.4542 27.4329C70.0933 29.3678 67.1608 30.3086 63.482 30.3086C60.1043 30.3086 57.2154 29.3767 54.8982 27.5394C51.7212 25.0231 51.7256 22.0364 51.7256 17.9092V17.5808V17.2524C51.7256 13.1252 51.7256 10.1429 54.8982 7.62221C57.2503 5.75831 60.0607 4.85742 63.482 4.85742C69.8053 4.85742 74.2129 7.7376 75.3824 12.5749C75.3955 12.8944 75.3126 13.5113 74.5358 13.5867H69.91C68.3827 13.569 68.1034 12.5571 68.1034 12.5571V12.5749C67.3659 10.8752 65.8778 10.0764 63.482 10.0764C62.1161 10.0764 60.9291 10.4758 60.1392 11.1947C59.1486 12.069 58.8562 13.0098 58.8562 17.5808C58.8562 22.1518 59.1573 23.137 60.1305 23.9935C60.9029 24.6991 62.0899 25.0808 63.482 25.0808C65.0486 25.0808 66.4058 24.7125 67.2611 23.887C67.8328 23.3367 68.195 22.1784 68.1688 21.282V19.7598L74.2434 17.6207V17.6252Z" fill="white"/>
<path d="M8.35691 22.5778C8.53146 20.2434 9.61372 17.8026 11.5731 16.0008C11.9571 15.6458 12.8343 15.0822 13.2794 14.8115C13.4147 14.7139 18.4332 11.5985 18.4332 11.5985C18.8958 11.381 19.7249 11.2612 20.266 11.2612C20.9206 11.2612 21.5316 11.4387 22.0596 11.7494C21.9942 10.1118 20.1831 8.39877 18.6339 7.48013C15.8541 5.82481 12.3673 5.76268 10.696 6.57037C9.87991 6.96534 5.02724 9.53043 5.02724 9.53043C2.03359 11.1547 0 14.3411 0 18.0023C0 21.6636 2.03359 24.85 5.0316 26.4742C5.0316 26.4742 7.7896 27.9343 10.421 29.3455C9.29078 27.668 8.16053 25.2716 8.36127 22.5822L8.35691 22.5778Z" fill="white"/>
<path d="M20.6236 0.907767C20.6236 0.907767 16.2596 3.4551 13.2485 5.12374C15.0159 5.11043 17.1892 5.4122 19.1616 6.58824C21.3261 7.87522 23.0804 10.0764 23.9052 12.9255C24.0318 13.3649 24.1103 14.3723 24.1409 14.8915C24.2063 16.0143 24.1714 20.5054 24.1714 20.5054C24.1714 21.9033 23.3685 23.4344 22.2077 24.0291C23.9052 25.1385 27.7673 24.4063 29.6438 23.2036C31.9043 21.7524 33.9161 18.9743 33.9161 16.751C33.9161 14.8737 34.2346 9.62374 34.2346 9.62374C34.2346 4.31161 29.9536 0.00244141 24.6733 0.00244141C23.2245 0.00244141 21.8542 0.326406 20.6236 0.907767Z" fill="white"/>
<path d="M30.1942 24.0733C27.8333 25.5911 24.2287 26.1591 20.7157 25.1029C19.1273 24.6236 15.4703 22.2405 13.8687 21.171C12.8258 20.4742 11.6693 19.3692 11.6693 17.9979C11.6693 17.918 11.6824 17.8426 11.6868 17.7627C10.3209 18.5349 9.51355 21.0023 9.387 22.6444C9.11207 26.2834 11.4991 29.9136 13.3233 30.9254C14.7023 31.6887 20.611 35.0926 20.611 35.0926C21.8416 35.6695 23.2163 35.9979 24.6651 35.9979C29.9367 35.9979 34.209 31.7065 34.2264 26.4077C34.2264 26.4077 34.0126 23.0482 33.934 19.8352C33.0962 21.4017 31.9005 22.9683 30.1854 24.0689L30.1942 24.0733Z" fill="white"/>
</g>
<defs>
<clipPath id="clip0_1101_7139">
<rect width="112.004" height="35.9956" fill="white" transform="translate(0 0.00244141)"/>
</clipPath>
</defs>
</svg>
