<svg width="248" height="80" viewBox="0 0 248 80" fill="none" xmlns="http://www.w3.org/2000/svg">
<path d="M46.4248 53.5401C46.2178 53.5598 46.0108 53.5697 45.8038 53.5697C44.6802 53.5697 43.6157 53.3231 42.6596 52.8793C42.6596 52.8793 37.958 50.1865 35.7008 48.993C33.4436 47.7995 30.5852 46.3002 30.5852 46.3002C28.2689 45.0573 26.682 42.6309 26.682 39.8395C26.682 38.5177 27.0467 37.2946 27.6578 36.2195C12.7546 48.3124 23.0744 62.4964 26.7214 66.6786C33.4436 70.2788 46.3755 77.6766 46.3755 77.6766C49.1452 78.9589 52.2402 79.6789 55.4929 79.6789C67.3504 79.6789 76.9705 70.1802 77.0001 58.4522C77.0001 58.4522 76.2805 47.2471 76.2805 39.1983C76.2805 38.4585 76.2805 37.699 76.3003 36.9297C73.7967 44.2683 66.0001 60.0107 46.4248 53.5401Z" fill="url(#paint0_linear_915_64819)"/>
<path d="M46.3853 2.00233C46.3853 2.00233 33.3056 9.51846 26.9185 12.882C33.621 11.9844 49.0269 11.9055 52.0134 29.4628C52.7625 30.607 53.2061 31.9781 53.2061 33.4478C53.2061 33.4478 52.9597 36.8409 52.9597 39.6224C52.9597 42.404 53.2061 46.2607 53.2061 46.2607C53.1962 50.0977 50.2097 53.2343 46.4149 53.5401C65.9901 60.0107 73.7867 44.2682 76.2903 36.9297C76.3987 29.4135 77 21.2957 77 21.2957C77 9.53819 67.3701 0 55.4928 0C52.2401 0 49.155 0.720049 46.3853 2.00233Z" fill="url(#paint1_linear_915_64819)"/>
<path d="M27.6577 36.2294C28.3477 35.0359 29.353 34.0397 30.5851 33.3887C30.5851 33.3887 33.6407 31.771 35.7303 30.686C37.8297 29.5912 42.6694 26.8096 42.6694 26.8096C43.6254 26.3657 44.69 26.1191 45.8038 26.1191C48.4059 26.1191 50.7025 27.4507 52.0233 29.4728C49.0367 11.9154 33.6308 11.9943 26.9283 12.8919C26.6918 13.0202 26.4651 13.1287 26.2581 13.247C20.1765 16.4133 11.3253 21.0985 11.3253 21.0985C4.58333 24.6889 0 31.7316 0 39.8395C0 47.9475 4.58333 55 11.3154 58.5904C11.3154 58.5904 19.6245 62.9206 26.1792 66.3926C26.3566 66.4814 26.534 66.58 26.7213 66.6786C23.0842 62.4964 12.7545 48.3124 27.6577 36.2196V36.2294Z" fill="url(#paint2_linear_915_64819)"/>
<path d="M118.925 16.282H109.223C108.563 16.3191 106.976 16.6351 106.938 18.6792V25.7313C106.976 27.6453 108.378 28.0356 109.093 28.1099H119.064C119.751 28.0356 121.042 27.6732 121.2 26.0008V18.4004C121.033 16.6072 119.556 16.3191 118.934 16.282H118.925Z" fill="white"/>
<path d="M192.571 16.282H182.859C182.209 16.3191 180.612 16.6351 180.575 18.6606V25.7406C180.612 27.636 182.014 28.0356 182.729 28.1099H192.692C193.37 28.0356 194.679 27.6732 194.827 25.9915V18.4097C194.66 16.6072 193.184 16.3191 192.562 16.282H192.571Z" fill="white"/>
<path d="M242.737 39.0461C239.868 36.9462 236.098 35.7476 230.537 35.1437L223.387 34.3446C221.335 34.1216 219.534 33.527 218.411 32.7186C217.538 32.0775 217.055 31.1484 217.055 30.0985C217.055 28.937 217.64 25.1369 225.179 25.1369C228.661 25.1369 232.607 25.4435 235.987 27.5898C236.507 27.8592 237.834 28.3424 239.376 27.3854L245.309 22.7862C246.302 21.6247 245.559 20.6584 245.049 20.1939C239.942 16.6167 233.86 15.0093 225.523 15.0093C211.967 15.0093 203.221 21.058 203.221 30.433C203.221 34.7256 204.762 38.0147 207.956 40.5234C210.834 42.7161 214.883 44.082 220.342 44.7138L227.64 45.5128C230.091 45.8009 231.326 46.1725 232.366 46.9344C233.313 47.6313 233.823 48.7462 233.823 50.1492C233.823 53.3548 230.62 54.9808 224.325 54.9808C218.838 54.9808 214.641 53.9773 211.521 51.9518C211.521 51.9518 209.906 50.7996 207.938 51.9889L201.81 56.7926C200.807 57.954 201.522 58.9203 202.023 59.3849C207.622 63.5288 214.316 65.3128 224.139 65.3128C238.299 65.3128 247.806 59.1154 247.806 49.8891C247.806 45.2062 246.088 41.5547 242.709 39.0461H242.737Z" fill="white"/>
<path d="M118.925 32.9971H109.223C108.563 33.0342 106.976 33.3501 106.938 35.385V62.5158C106.976 64.4298 108.378 64.82 109.093 64.9036H119.064C119.751 64.8293 121.042 64.4669 121.2 62.7945V35.1248C121.033 33.3316 119.556 33.0435 118.934 32.9971H118.925Z" fill="white"/>
<path d="M150.549 38.7579V44.4443C150.595 45.0296 150.948 46.4605 153.223 46.4884H172.294C174.42 46.4605 174.875 45.2062 174.958 44.565V38.6464C174.875 38.0332 174.466 36.8718 172.6 36.7324H152.916C150.911 36.8811 150.595 38.2005 150.549 38.7579Z" fill="white"/>
<path d="M192.571 32.9973H182.859C182.209 33.0345 180.612 33.3504 180.575 35.3759V62.5346C180.612 64.43 182.014 64.8296 182.729 64.9039H192.692C193.37 64.8296 194.679 64.4672 194.827 62.7762V35.1158C194.66 33.3132 193.184 33.0252 192.562 32.988L192.571 32.9973Z" fill="white"/>
<path d="M172.396 40.2354C173.361 40.5048 174.271 41.0065 174.708 41.8428C175.088 42.5861 174.94 43.5059 174.921 44.2957C174.902 45.2434 174.865 46.1818 174.8 47.1203C174.661 48.9785 174.401 50.8368 173.835 52.6301C172.971 55.3524 171.142 57.731 168.821 59.6172C164.104 63.4452 158.236 65.3035 150.892 65.3035C144.142 65.3035 138.376 63.4638 133.734 59.8309C127.383 54.86 127.393 48.96 127.393 40.8021V40.1517V39.5013C127.393 31.3435 127.393 25.4528 133.734 20.4726C138.432 16.7932 144.04 15 150.892 15C163.519 15 172.34 20.6863 174.67 30.2564C174.698 30.8882 174.531 32.1054 172.981 32.2541H163.733C160.678 32.2169 160.131 30.2193 160.131 30.2193V30.2564C158.654 26.9022 155.683 25.3227 150.892 25.3227C148.162 25.3227 145.786 26.1125 144.207 27.5341C142.23 29.2623 141.645 31.1205 141.645 40.1517C141.645 49.183 142.248 51.1341 144.189 52.8252C145.73 54.2189 148.107 54.9808 150.883 54.9808C154.012 54.9808 156.723 54.256 158.431 52.6208C159.573 51.5337 160.298 49.248 160.251 47.4733V44.4629L172.396 40.2354Z" fill="white"/>
<defs>
<linearGradient id="paint0_linear_915_64819" x1="26.0413" y1="57.9591" x2="51.3334" y2="57.9591" gradientUnits="userSpaceOnUse">
<stop stop-color="#002A60"/>
<stop offset="1" stop-color="#0093D5"/>
</linearGradient>
<linearGradient id="paint1_linear_915_64819" x1="51.9642" y1="47.5233" x2="51.9642" y2="10.6725" gradientUnits="userSpaceOnUse">
<stop stop-color="#002A60"/>
<stop offset="1" stop-color="#0093D5"/>
</linearGradient>
<linearGradient id="paint2_linear_915_64819" x1="46.7993" y1="32.9251" x2="21.5329" y2="41.5842" gradientUnits="userSpaceOnUse">
<stop stop-color="#002A60"/>
<stop offset="1" stop-color="#0093D5"/>
</linearGradient>
</defs>
</svg>
